<svg width="358" height="228" viewBox="0 0 358 228" fill="none" xmlns="http://www.w3.org/2000/svg">
<g clip-path="url(#clip0_2324_2840)">
<g filter="url(#filter0_d_2324_2840)">
<path d="M221.933 0.793945H132.937C130.542 0.793945 128.601 2.74638 128.601 5.15484V50.6598C128.601 53.0683 130.542 55.0207 132.937 55.0207H221.933C224.328 55.0207 226.27 53.0683 226.27 50.6598V5.15484C226.27 2.74638 224.328 0.793945 221.933 0.793945Z" stroke="#1B49F5" stroke-width="0.5"/>
<path d="M186.485 18.8061C186.485 13.7797 182.433 9.70508 177.435 9.70508C172.436 9.70508 168.384 13.7797 168.384 18.8061C168.384 23.8324 172.436 27.9071 177.435 27.9071C182.433 27.9071 186.485 23.8324 186.485 18.8061Z" fill="#1B49F5"/>
<mask id="mask0_2324_2840" style="mask-type:luminance" maskUnits="userSpaceOnUse" x="172" y="14" width="10" height="10">
<path d="M181.96 14.2559H172.909V23.3569H181.96V14.2559Z" fill="white"/>
</mask>
<g mask="url(#mask0_2324_2840)">
<path d="M180.829 16.2461H174.041C173.885 16.2461 173.758 16.3734 173.758 16.5305V21.081C173.758 21.2381 173.885 21.3654 174.041 21.3654H180.829C180.985 21.3654 181.112 21.2381 181.112 21.081V16.5305C181.112 16.3734 180.985 16.2461 180.829 16.2461Z" stroke="white" stroke-width="0.56723" stroke-linecap="round" stroke-linejoin="round"/>
<path d="M178.849 20.2285H179.98" stroke="white" stroke-width="0.56723" stroke-linecap="round" stroke-linejoin="round"/>
<path d="M177.152 20.2285H177.718" stroke="white" stroke-width="0.56723" stroke-linecap="round" stroke-linejoin="round"/>
<path d="M173.758 17.668H181.112" stroke="white" stroke-width="0.56723" stroke-linecap="round" stroke-linejoin="round"/>
</g>
<path d="M143.603 39.2836C143.95 39.2836 144.257 39.3518 144.524 39.4883C144.79 39.6199 144.994 39.8095 145.135 40.0571C145.28 40.2998 145.353 40.5854 145.353 40.9142C145.353 41.2429 145.28 41.5311 145.135 41.7787C144.989 42.0264 144.783 42.2186 144.516 42.3551C144.255 42.4867 143.95 42.5523 143.603 42.5523H142.231V44.5925H141.575V39.2836H143.603ZM142.231 41.9456H143.543C143.89 41.9456 144.167 41.8519 144.373 41.665C144.579 41.478 144.682 41.2278 144.682 40.9142C144.682 40.6005 144.579 40.3529 144.373 40.1709C144.172 39.984 143.898 39.8903 143.551 39.8903H142.231V41.9456ZM149.273 40.7245V44.5925H148.738L148.655 44.0767C148.363 44.451 147.953 44.638 147.425 44.638C146.968 44.638 146.601 44.4965 146.324 44.2133C146.048 43.93 145.909 43.4852 145.909 42.8784V40.7245H146.528V42.8405C146.528 43.2398 146.614 43.5459 146.784 43.7582C146.96 43.9656 147.209 44.0692 147.531 44.0692C147.883 44.0692 148.157 43.9429 148.353 43.69C148.554 43.437 148.655 43.0935 148.655 42.6585V40.7245H149.273ZM152.07 40.7245V41.3313H151.761C151.393 41.3313 151.129 41.4553 150.969 41.7029C150.813 41.9505 150.735 42.2566 150.735 42.6206V44.5925H150.116V40.7245H150.652L150.735 41.3085C150.845 41.1314 150.989 40.99 151.165 40.8838C151.34 40.7776 151.584 40.7245 151.896 40.7245H152.07ZM155.846 43.2577C155.765 43.6873 155.577 44.0263 155.28 44.2739C154.984 44.5166 154.607 44.638 154.149 44.638C153.777 44.638 153.45 44.5546 153.168 44.3877C152.887 44.2208 152.668 43.9884 152.512 43.69C152.356 43.3866 152.278 43.0404 152.278 42.6509C152.278 42.2615 152.356 41.9179 152.512 41.6195C152.673 41.321 152.897 41.0912 153.183 40.9293C153.47 40.7625 153.8 40.679 154.171 40.679C154.624 40.679 154.996 40.8004 155.288 41.0431C155.584 41.2858 155.77 41.6195 155.846 42.0442H155.22C155.159 41.7966 155.034 41.5994 154.843 41.4526C154.652 41.3059 154.42 41.2327 154.149 41.2327C153.782 41.2327 153.483 41.3643 153.251 41.6271C153.025 41.8899 152.912 42.2311 152.912 42.6509C152.912 43.0756 153.025 43.4219 153.251 43.69C153.483 43.9527 153.782 44.0843 154.149 44.0843C154.43 44.0843 154.667 44.0111 154.858 43.8644C155.049 43.7176 155.172 43.5155 155.227 43.2577H155.846ZM158.446 40.679C158.914 40.679 159.291 40.8205 159.578 41.1038C159.864 41.387 160.007 41.8318 160.007 42.4386V44.5925H159.389V42.4765C159.389 42.0772 159.298 41.7738 159.117 41.5664C158.936 41.354 158.678 41.2479 158.341 41.2479C157.984 41.2479 157.7 41.3741 157.488 41.6271C157.282 41.88 157.179 42.2236 157.179 42.6585V44.5925H156.561V39.2836H157.179V41.3616C157.305 41.1595 157.471 40.9949 157.677 40.8686C157.888 40.7424 158.145 40.679 158.446 40.679ZM164.393 44.0237V44.5925H164.054C163.808 44.5925 163.632 44.542 163.526 44.4408C163.421 44.3395 163.365 44.1905 163.36 43.9933C163.063 44.423 162.634 44.638 162.071 44.638C161.643 44.638 161.299 44.5367 161.037 44.3346C160.781 44.1325 160.653 43.8568 160.653 43.5079C160.653 43.1185 160.783 42.8204 161.045 42.613C161.311 42.4056 161.696 42.3021 162.199 42.3021H163.33V42.0366C163.33 41.7837 163.244 41.5865 163.074 41.445C162.908 41.3036 162.674 41.2327 162.372 41.2327C162.106 41.2327 161.885 41.2934 161.709 41.4147C161.538 41.5311 161.432 41.6877 161.392 41.8849H160.773C160.819 41.5057 160.984 41.2099 161.271 40.9976C161.563 40.7852 161.94 40.679 162.402 40.679C162.895 40.679 163.275 40.8004 163.541 41.0431C163.813 41.2808 163.949 41.6244 163.949 42.0745V43.743C163.949 43.93 164.034 44.0237 164.205 44.0237H164.393ZM163.33 42.8254H162.138C161.565 42.8254 161.279 43.0404 161.279 43.47C161.279 43.6623 161.354 43.8162 161.505 43.9326C161.656 44.0491 161.859 44.1071 162.116 44.1071C162.493 44.1071 162.79 44.0085 163.006 43.8113C163.222 43.6092 163.33 43.3437 163.33 43.015V42.8254ZM165.352 43.3183C165.361 43.5508 165.462 43.7404 165.653 43.8871C165.849 44.0339 166.101 44.1071 166.408 44.1071C166.679 44.1071 166.898 44.054 167.064 43.9478C167.235 43.8367 167.32 43.6926 167.32 43.5155C167.32 43.3638 167.28 43.2474 167.199 43.1667C167.119 43.0859 167.013 43.0301 166.883 42.9998C166.757 42.9695 166.576 42.9391 166.34 42.9088C166.008 42.8682 165.736 42.8151 165.525 42.7495C165.314 42.6839 165.143 42.58 165.012 42.4386C164.881 42.2918 164.816 42.0924 164.816 41.8394C164.816 41.6119 164.879 41.4098 165.005 41.2327C165.135 41.0556 165.311 40.9191 165.533 40.8231C165.754 40.7219 166.003 40.6715 166.279 40.6715C166.732 40.6715 167.099 40.7776 167.38 40.99C167.667 41.2024 167.825 41.5057 167.856 41.9001H167.237C167.212 41.698 167.114 41.5311 166.943 41.3995C166.772 41.268 166.558 41.2023 166.302 41.2023C166.04 41.2023 165.829 41.2581 165.668 41.3692C165.507 41.4754 165.427 41.6168 165.427 41.7939C165.427 41.9255 165.465 42.0264 165.54 42.0973C165.616 42.1682 165.711 42.216 165.827 42.2414C165.948 42.2668 166.129 42.2945 166.37 42.3248C166.707 42.3654 166.983 42.4207 167.199 42.4917C167.42 42.5626 167.597 42.6763 167.727 42.8329C167.863 42.9896 167.931 43.2019 167.931 43.47C167.931 43.7025 167.863 43.9072 167.727 44.0843C167.592 44.2614 167.408 44.3979 167.177 44.4939C166.945 44.5898 166.689 44.638 166.408 44.638C165.905 44.638 165.5 44.5216 165.193 44.2891C164.892 44.0566 164.738 43.7328 164.733 43.3183H165.352ZM168.497 42.6585C168.497 42.2641 168.572 41.9179 168.723 41.6195C168.879 41.321 169.095 41.0912 169.372 40.9293C169.648 40.7625 169.965 40.679 170.322 40.679C170.674 40.679 170.986 40.7522 171.257 40.899C171.529 41.0457 171.742 41.2581 171.898 41.5361C172.054 41.814 172.137 42.1401 172.147 42.5144C172.147 42.5702 172.142 42.6585 172.132 42.7799H169.145V42.8329C169.156 43.2122 169.271 43.5155 169.492 43.743C169.714 43.9706 170.002 44.0843 170.36 44.0843C170.636 44.0843 170.87 44.0161 171.061 43.8796C171.257 43.7381 171.388 43.5432 171.453 43.2956H172.079C172.004 43.69 171.815 44.0134 171.514 44.2664C171.212 44.514 170.842 44.638 170.405 44.638C170.023 44.638 169.688 44.5572 169.402 44.3953C169.115 44.2284 168.892 43.996 168.731 43.6975C168.575 43.3942 168.497 43.048 168.497 42.6585ZM171.506 42.2641C171.476 41.9354 171.353 41.6802 171.136 41.4981C170.925 41.3161 170.656 41.2251 170.329 41.2251C170.038 41.2251 169.781 41.321 169.56 41.5133C169.339 41.7056 169.213 41.9558 169.183 42.2641H171.506ZM176.712 40.679C177.18 40.679 177.557 40.8205 177.844 41.1038C178.13 41.387 178.273 41.8318 178.273 42.4386V44.5925H177.655V42.4765C177.655 42.0772 177.564 41.7738 177.383 41.5664C177.202 41.354 176.943 41.2479 176.607 41.2479C176.25 41.2479 175.966 41.3741 175.754 41.6271C175.548 41.88 175.445 42.2236 175.445 42.6585V44.5925H174.827V39.2836H175.445V41.3616C175.571 41.1595 175.737 40.9949 175.943 40.8686C176.154 40.7424 176.411 40.679 176.712 40.679ZM179.371 39.2305C179.487 39.2305 179.582 39.2684 179.657 39.3442C179.733 39.4201 179.771 39.516 179.771 39.6324C179.771 39.7488 179.733 39.8448 179.657 39.9206C179.582 39.9965 179.487 40.0344 179.371 40.0344C179.255 40.0344 179.16 39.9965 179.084 39.9206C179.009 39.8448 178.971 39.7488 178.971 39.6324C178.971 39.516 179.009 39.4201 179.084 39.3442C179.16 39.2684 179.255 39.2305 179.371 39.2305ZM179.062 40.7245H179.68V44.5925H179.062V40.7245ZM181.01 43.3183C181.02 43.5508 181.121 43.7404 181.312 43.8871C181.508 44.0339 181.759 44.1071 182.066 44.1071C182.337 44.1071 182.556 44.054 182.722 43.9478C182.893 43.8367 182.979 43.6926 182.979 43.5155C182.979 43.3638 182.938 43.2474 182.858 43.1667C182.778 43.0859 182.672 43.0301 182.541 42.9998C182.416 42.9695 182.235 42.9391 181.998 42.9088C181.666 42.8682 181.395 42.8151 181.184 42.7495C180.972 42.6839 180.802 42.58 180.671 42.4386C180.54 42.2918 180.475 42.0924 180.475 41.8394C180.475 41.6119 180.538 41.4098 180.663 41.2327C180.794 41.0556 180.97 40.9191 181.191 40.8231C181.412 40.7219 181.661 40.6715 181.938 40.6715C182.39 40.6715 182.757 40.7776 183.039 40.99C183.325 41.2024 183.484 41.5057 183.514 41.9001H182.896C182.87 41.698 182.772 41.5311 182.601 41.3995C182.431 41.268 182.217 41.2023 181.96 41.2023C181.699 41.2023 181.488 41.2581 181.327 41.3692C181.166 41.4754 181.085 41.6168 181.085 41.7939C181.085 41.9255 181.123 42.0264 181.199 42.0973C181.274 42.1682 181.369 42.216 181.485 42.2414C181.606 42.2668 181.787 42.2945 182.028 42.3248C182.365 42.3654 182.642 42.4207 182.858 42.4917C183.079 42.5626 183.255 42.6763 183.386 42.8329C183.522 42.9896 183.589 43.2019 183.589 43.47C183.589 43.7025 183.522 43.9072 183.386 44.0843C183.25 44.2614 183.066 44.3979 182.835 44.4939C182.604 44.5898 182.348 44.638 182.066 44.638C181.563 44.638 181.158 44.5216 180.852 44.2891C180.55 44.0566 180.397 43.7328 180.392 43.3183H181.01ZM184.548 41.2934H183.854V40.7245H184.548V39.64H185.166V40.7245H186.139V41.2934H185.166V43.5762C185.166 43.7381 185.196 43.8542 185.257 43.9251C185.322 43.9907 185.432 44.0237 185.588 44.0237H186.26V44.5925H185.551C185.189 44.5925 184.93 44.5117 184.774 44.3498C184.623 44.1879 184.548 43.9326 184.548 43.5838V41.2934ZM188.376 44.638C188.004 44.638 187.672 44.5546 187.38 44.3877C187.094 44.2208 186.87 43.9884 186.709 43.69C186.549 43.3915 186.468 43.048 186.468 42.6585C186.468 42.2691 186.549 41.9255 186.709 41.6271C186.87 41.3286 187.094 41.0962 187.38 40.9293C187.672 40.7625 188.004 40.679 188.376 40.679C188.748 40.679 189.077 40.7625 189.364 40.9293C189.656 41.0962 189.882 41.3286 190.043 41.6271C190.204 41.9255 190.284 42.2691 190.284 42.6585C190.284 43.048 190.204 43.3915 190.043 43.69C189.882 43.9884 189.656 44.2208 189.364 44.3877C189.077 44.5546 188.748 44.638 188.376 44.638ZM188.376 44.0843C188.628 44.0843 188.849 44.0237 189.04 43.9023C189.236 43.781 189.387 43.6115 189.492 43.3942C189.598 43.1769 189.651 42.9315 189.651 42.6585C189.651 42.3855 189.598 42.1401 189.492 41.9228C189.387 41.7056 189.236 41.5361 189.04 41.4147C188.849 41.2934 188.628 41.2327 188.376 41.2327C188.125 41.2327 187.901 41.2934 187.705 41.4147C187.514 41.5361 187.365 41.7056 187.26 41.9228C187.154 42.1401 187.101 42.3855 187.101 42.6585C187.101 42.9315 187.154 43.1769 187.26 43.3942C187.365 43.6115 187.514 43.781 187.705 43.9023C187.901 44.0237 188.125 44.0843 188.376 44.0843ZM192.947 40.7245V41.3313H192.638C192.271 41.3313 192.007 41.4553 191.846 41.7029C191.69 41.9505 191.612 42.2566 191.612 42.6206V44.5925H190.993V40.7245H191.529L191.612 41.3085C191.722 41.1314 191.866 40.99 192.042 40.8838C192.218 40.7776 192.462 40.7245 192.773 40.7245H192.947ZM193.821 40.7245L195.005 43.8796L196.151 40.7245H196.807L195.035 45.2447C194.944 45.4772 194.864 45.6516 194.793 45.768C194.723 45.8844 194.635 45.9701 194.53 46.0259C194.424 46.0816 194.283 46.1093 194.107 46.1093H193.368V45.5405H193.919C194.039 45.5405 194.13 45.528 194.19 45.5026C194.25 45.4772 194.298 45.4343 194.333 45.3736C194.374 45.3179 194.422 45.222 194.477 45.0854L194.673 44.6228L193.164 40.7245H193.821ZM202.893 39.2836V44.5925H202.357L202.274 43.9706C201.953 44.4154 201.513 44.638 200.955 44.638C200.597 44.638 200.278 44.5595 199.997 44.4029C199.72 44.2463 199.502 44.0187 199.341 43.7203C199.185 43.4219 199.107 43.0681 199.107 42.6585C199.107 42.2691 199.185 41.9255 199.341 41.6271C199.502 41.3286 199.723 41.0962 200.004 40.9293C200.286 40.7625 200.603 40.679 200.955 40.679C201.266 40.679 201.533 40.7371 201.754 40.8535C201.975 40.9646 202.149 41.1189 202.274 41.3161V39.2836H202.893ZM201.015 44.0843C201.261 44.0843 201.48 44.0263 201.671 43.9099C201.867 43.7885 202.018 43.6217 202.124 43.4093C202.229 43.1921 202.282 42.9467 202.282 42.6737C202.282 42.3957 202.229 42.1477 202.124 41.9304C202.018 41.7078 201.867 41.5361 201.671 41.4147C201.48 41.2934 201.261 41.2327 201.015 41.2327C200.633 41.2327 200.324 41.3665 200.087 41.6346C199.856 41.8974 199.74 42.2387 199.74 42.6585C199.74 43.0783 199.856 43.4219 200.087 43.69C200.324 43.9527 200.633 44.0843 201.015 44.0843ZM207.333 44.0237V44.5925H206.993C206.747 44.5925 206.571 44.542 206.466 44.4408C206.36 44.3395 206.305 44.1905 206.3 43.9933C206.003 44.423 205.573 44.638 205.01 44.638C204.583 44.638 204.238 44.5367 203.977 44.3346C203.72 44.1325 203.592 43.8568 203.592 43.5079C203.592 43.1185 203.723 42.8204 203.984 42.613C204.251 42.4056 204.635 42.3021 205.138 42.3021H206.269V42.0366C206.269 41.7837 206.184 41.5865 206.013 41.445C205.847 41.3036 205.613 41.2327 205.312 41.2327C205.045 41.2327 204.824 41.2934 204.648 41.4147C204.477 41.5311 204.371 41.6877 204.331 41.8849H203.713C203.758 41.5057 203.924 41.2099 204.21 40.9976C204.502 40.7852 204.879 40.679 205.342 40.679C205.835 40.679 206.214 40.8004 206.481 41.0431C206.752 41.2808 206.888 41.6244 206.888 42.0745V43.743C206.888 43.93 206.974 44.0237 207.144 44.0237H207.333ZM206.269 42.8254H205.078C204.505 42.8254 204.218 43.0404 204.218 43.47C204.218 43.6623 204.293 43.8162 204.444 43.9326C204.595 44.0491 204.799 44.1071 205.055 44.1071C205.432 44.1071 205.729 44.0085 205.945 43.8113C206.161 43.6092 206.269 43.3437 206.269 43.015V42.8254ZM208.065 41.2934H207.371V40.7245H208.065V39.64H208.683V40.7245H209.656V41.2934H208.683V43.5762C208.683 43.7381 208.713 43.8542 208.774 43.9251C208.839 43.9907 208.95 44.0237 209.106 44.0237H209.777V44.5925H209.068C208.706 44.5925 208.447 44.5117 208.291 44.3498C208.14 44.1879 208.065 43.9326 208.065 43.5838V41.2934ZM213.755 44.0237V44.5925H213.416C213.17 44.5925 212.994 44.542 212.888 44.4408C212.782 44.3395 212.727 44.1905 212.722 43.9933C212.426 44.423 211.996 44.638 211.432 44.638C211.005 44.638 210.661 44.5367 210.399 44.3346C210.143 44.1325 210.014 43.8568 210.014 43.5079C210.014 43.1185 210.145 42.8204 210.407 42.613C210.673 42.4056 211.058 42.3021 211.561 42.3021H212.692V42.0366C212.692 41.7837 212.607 41.5865 212.435 41.445C212.27 41.3036 212.036 41.2327 211.734 41.2327C211.468 41.2327 211.246 41.2934 211.07 41.4147C210.899 41.5311 210.794 41.6877 210.754 41.8849H210.135C210.18 41.5057 210.346 41.2099 210.633 40.9976C210.925 40.7852 211.302 40.679 211.764 40.679C212.257 40.679 212.637 40.8004 212.903 41.0431C213.175 41.2808 213.31 41.6244 213.31 42.0745V43.743C213.31 43.93 213.396 44.0237 213.567 44.0237H213.755ZM212.692 42.8254H211.5C210.927 42.8254 210.64 43.0404 210.64 43.47C210.64 43.6623 210.716 43.8162 210.867 43.9326C211.018 44.0491 211.221 44.1071 211.478 44.1071C211.855 44.1071 212.151 44.0085 212.368 43.8113C212.584 43.6092 212.692 43.3437 212.692 43.015V42.8254Z" fill="#0F172A"/>
</g>
<g filter="url(#filter1_d_2324_2840)">
<path d="M352.787 65.2598H263.791C261.396 65.2598 259.455 67.2122 259.455 69.6207V115.126C259.455 117.534 261.396 119.487 263.791 119.487H352.787C355.182 119.487 357.124 117.534 357.124 115.126V69.6207C357.124 67.2122 355.182 65.2598 352.787 65.2598Z" stroke="#1B49F5" stroke-width="0.5"/>
<path d="M317.34 83.2719C317.34 78.2456 313.288 74.1709 308.289 74.1709C303.291 74.1709 299.239 78.2456 299.239 83.2719C299.239 88.2982 303.291 92.3729 308.289 92.3729C313.288 92.3729 317.34 88.2982 317.34 83.2719Z" fill="#1B49F5"/>
<mask id="mask1_2324_2840" style="mask-type:luminance" maskUnits="userSpaceOnUse" x="303" y="78" width="10" height="10">
<path d="M312.814 78.7212H303.764V87.8222H312.814V78.7212Z" fill="white"/>
</mask>
<g mask="url(#mask1_2324_2840)">
<path d="M311.117 81.8501H305.461C305.304 81.8501 305.178 81.9775 305.178 82.1345V86.1162C305.178 86.2732 305.304 86.4006 305.461 86.4006H311.117C311.272 86.4006 311.4 86.2732 311.4 86.1162V82.1345C311.4 81.9775 311.272 81.8501 311.117 81.8501Z" stroke="white" stroke-width="0.56723" stroke-linecap="round" stroke-linejoin="round"/>
<path d="M306.875 81.8502V80.7126C306.875 80.3352 307.024 79.9739 307.289 79.7069C307.555 79.4403 307.914 79.2905 308.289 79.2905C308.972 79.2905 309.571 79.7789 309.703 80.4282" stroke="white" stroke-width="0.56723" stroke-linecap="round" stroke-linejoin="round"/>
<path d="M308.289 84.4098C308.681 84.4098 308.998 84.0917 308.998 83.6988C308.998 83.3059 308.681 82.9878 308.289 82.9878C307.898 82.9878 307.582 83.3059 307.582 83.6988C307.582 84.0917 307.898 84.4098 308.289 84.4098Z" stroke="white" stroke-width="0.56723" stroke-linecap="round" stroke-linejoin="round"/>
<path d="M308.289 84.4092V85.2624" stroke="white" stroke-width="0.56723" stroke-linecap="round" stroke-linejoin="round"/>
</g>
<path d="M277.724 103.749C278.071 103.749 278.377 103.817 278.644 103.954C278.91 104.085 279.114 104.275 279.255 104.522C279.401 104.765 279.473 105.051 279.473 105.379C279.473 105.708 279.401 105.996 279.255 106.244C279.109 106.492 278.903 106.684 278.636 106.82C278.375 106.952 278.071 107.018 277.724 107.018H276.351V109.058H275.695V103.749H277.724ZM276.351 106.411H277.663C278.01 106.411 278.287 106.317 278.493 106.13C278.699 105.943 278.802 105.693 278.802 105.379C278.802 105.066 278.699 104.818 278.493 104.636C278.292 104.449 278.018 104.356 277.671 104.356H276.351V106.411ZM282.036 105.19V105.797H281.727C281.36 105.797 281.096 105.921 280.935 106.168C280.779 106.416 280.701 106.722 280.701 107.086V109.058H280.082V105.19H280.618L280.701 105.774C280.811 105.597 280.955 105.455 281.131 105.349C281.307 105.243 281.55 105.19 281.862 105.19H282.036ZM282.911 103.696C283.026 103.696 283.122 103.734 283.197 103.81C283.273 103.885 283.31 103.981 283.31 104.098C283.31 104.214 283.273 104.31 283.197 104.386C283.122 104.462 283.026 104.5 282.911 104.5C282.795 104.5 282.699 104.462 282.624 104.386C282.549 104.31 282.511 104.214 282.511 104.098C282.511 103.981 282.549 103.885 282.624 103.81C282.699 103.734 282.795 103.696 282.911 103.696ZM282.601 105.19H283.22V109.058H282.601V105.19ZM283.682 105.19H284.346L285.507 108.352L286.661 105.19H287.31L285.869 109.058H285.123L283.682 105.19ZM291.222 108.489V109.058H290.883C290.636 109.058 290.46 109.007 290.355 108.906C290.249 108.805 290.194 108.656 290.189 108.459C289.892 108.888 289.462 109.103 288.899 109.103C288.472 109.103 288.127 109.002 287.866 108.8C287.609 108.598 287.481 108.322 287.481 107.973C287.481 107.584 287.612 107.286 287.873 107.078C288.14 106.871 288.525 106.767 289.027 106.767H290.159V106.502C290.159 106.249 290.073 106.052 289.902 105.91C289.736 105.769 289.502 105.698 289.201 105.698C288.934 105.698 288.713 105.759 288.537 105.88C288.366 105.996 288.261 106.153 288.22 106.35H287.602C287.647 105.971 287.813 105.675 288.1 105.463C288.391 105.251 288.768 105.144 289.231 105.144C289.724 105.144 290.103 105.266 290.37 105.508C290.641 105.746 290.777 106.09 290.777 106.54V108.208C290.777 108.395 290.863 108.489 291.033 108.489H291.222ZM290.159 107.291H288.967C288.394 107.291 288.107 107.506 288.107 107.935C288.107 108.128 288.183 108.282 288.333 108.398C288.484 108.514 288.688 108.572 288.944 108.572C289.321 108.572 289.618 108.474 289.834 108.277C290.05 108.075 290.159 107.809 290.159 107.48V107.291ZM295.129 107.723C295.048 108.153 294.86 108.492 294.563 108.739C294.267 108.982 293.89 109.103 293.432 109.103C293.06 109.103 292.733 109.02 292.452 108.853C292.17 108.686 291.951 108.454 291.796 108.155C291.639 107.852 291.562 107.506 291.562 107.116C291.562 106.727 291.639 106.383 291.796 106.085C291.956 105.786 292.18 105.557 292.467 105.395C292.753 105.228 293.083 105.144 293.455 105.144C293.907 105.144 294.279 105.266 294.571 105.508C294.867 105.751 295.054 106.085 295.129 106.51H294.503C294.443 106.262 294.317 106.065 294.126 105.918C293.935 105.771 293.704 105.698 293.432 105.698C293.065 105.698 292.766 105.83 292.535 106.092C292.308 106.355 292.195 106.696 292.195 107.116C292.195 107.541 292.308 107.887 292.535 108.155C292.766 108.418 293.065 108.55 293.432 108.55C293.713 108.55 293.95 108.476 294.141 108.33C294.332 108.183 294.455 107.981 294.511 107.723H295.129ZM295.968 105.19L297.152 108.345L298.299 105.19H298.955L297.182 109.71C297.092 109.943 297.012 110.117 296.941 110.233C296.871 110.35 296.783 110.435 296.677 110.491C296.572 110.547 296.431 110.575 296.255 110.575H295.516V110.006H296.066C296.187 110.006 296.277 109.993 296.338 109.968C296.398 109.942 296.446 109.9 296.481 109.839C296.521 109.783 296.569 109.687 296.624 109.551L296.82 109.088L295.312 105.19H295.968ZM303.328 105.144C303.686 105.144 304.002 105.223 304.279 105.379C304.56 105.536 304.779 105.764 304.935 106.062C305.096 106.361 305.176 106.714 305.176 107.124C305.176 107.513 305.096 107.857 304.935 108.155C304.779 108.454 304.56 108.686 304.279 108.853C303.997 109.02 303.68 109.103 303.328 109.103C303.017 109.103 302.75 109.048 302.529 108.936C302.308 108.82 302.134 108.663 302.009 108.466L301.926 109.058H301.39V103.749H302.009V105.812C302.33 105.367 302.77 105.144 303.328 105.144ZM303.268 108.55C303.65 108.55 303.957 108.418 304.188 108.155C304.425 107.887 304.543 107.544 304.543 107.124C304.543 106.704 304.425 106.363 304.188 106.1C303.957 105.832 303.65 105.698 303.268 105.698C303.022 105.698 302.8 105.759 302.604 105.88C302.413 105.996 302.265 106.163 302.159 106.381C302.054 106.593 302.001 106.836 302.001 107.109C302.001 107.387 302.054 107.637 302.159 107.86C302.265 108.077 302.413 108.246 302.604 108.368C302.8 108.489 303.022 108.55 303.268 108.55ZM307.836 105.19V105.797H307.527C307.16 105.797 306.896 105.921 306.735 106.168C306.579 106.416 306.501 106.722 306.501 107.086V109.058H305.883V105.19H306.418L306.501 105.774C306.612 105.597 306.755 105.455 306.931 105.349C307.107 105.243 307.351 105.19 307.663 105.19H307.836ZM308.045 107.124C308.045 106.729 308.121 106.383 308.271 106.085C308.427 105.786 308.643 105.557 308.919 105.395C309.198 105.228 309.514 105.144 309.869 105.144C310.223 105.144 310.533 105.218 310.804 105.364C311.076 105.511 311.291 105.723 311.445 106.001C311.604 106.279 311.687 106.605 311.694 106.98C311.694 107.035 311.69 107.124 311.679 107.245H308.692V107.298C308.704 107.677 308.821 107.981 309.039 108.208C309.262 108.436 309.552 108.55 309.907 108.55C310.186 108.55 310.419 108.481 310.608 108.345C310.804 108.203 310.936 108.009 311 107.761H311.626C311.551 108.155 311.362 108.479 311.061 108.732C310.759 108.979 310.389 109.103 309.952 109.103C309.571 109.103 309.235 109.023 308.949 108.861C308.664 108.694 308.44 108.461 308.279 108.163C308.123 107.86 308.045 107.513 308.045 107.124ZM311.053 106.729C311.023 106.401 310.902 106.145 310.683 105.963C310.472 105.781 310.205 105.69 309.876 105.69C309.586 105.69 309.33 105.786 309.107 105.979C308.888 106.171 308.76 106.421 308.73 106.729H311.053ZM316.001 108.489V109.058H315.661C315.412 109.058 315.239 109.007 315.133 108.906C315.028 108.805 314.971 108.656 314.967 108.459C314.669 108.888 314.239 109.103 313.678 109.103C313.248 109.103 312.905 109.002 312.644 108.8C312.388 108.598 312.26 108.322 312.26 107.973C312.26 107.584 312.388 107.286 312.652 107.078C312.916 106.871 313.3 106.767 313.806 106.767H314.937V106.502C314.937 106.249 314.85 106.052 314.681 105.91C314.515 105.769 314.281 105.698 313.979 105.698C313.712 105.698 313.489 105.759 313.316 105.88C313.142 105.996 313.037 106.153 312.999 106.35H312.38C312.426 105.971 312.592 105.675 312.878 105.463C313.169 105.251 313.546 105.144 314.009 105.144C314.5 105.144 314.881 105.266 315.148 105.508C315.42 105.746 315.556 106.09 315.556 106.54V108.208C315.556 108.395 315.639 108.489 315.812 108.489H316.001ZM314.937 107.291H313.745C313.172 107.291 312.886 107.506 312.886 107.935C312.886 108.128 312.961 108.282 313.112 108.398C313.263 108.514 313.466 108.572 313.723 108.572C314.1 108.572 314.394 108.474 314.613 108.277C314.828 108.075 314.937 107.809 314.937 107.48V107.291ZM319.907 107.723C319.824 108.153 319.636 108.492 319.342 108.739C319.044 108.982 318.667 109.103 318.21 109.103C317.837 109.103 317.509 109.02 317.23 108.853C316.947 108.686 316.728 108.454 316.574 108.155C316.415 107.852 316.34 107.506 316.34 107.116C316.34 106.727 316.415 106.383 316.574 106.085C316.732 105.786 316.958 105.557 317.245 105.395C317.532 105.228 317.86 105.144 318.233 105.144C318.686 105.144 319.055 105.266 319.349 105.508C319.643 105.751 319.832 106.085 319.907 106.51H319.281C319.221 106.262 319.093 106.065 318.904 105.918C318.712 105.771 318.482 105.698 318.21 105.698C317.841 105.698 317.543 105.83 317.313 106.092C317.087 106.355 316.973 106.696 316.973 107.116C316.973 107.541 317.087 107.887 317.313 108.155C317.543 108.418 317.841 108.55 318.21 108.55C318.489 108.55 318.727 108.476 318.919 108.33C319.108 108.183 319.232 107.981 319.289 107.723H319.907ZM322.506 105.144C322.973 105.144 323.35 105.286 323.637 105.569C323.923 105.852 324.067 106.297 324.067 106.904V109.058H323.448V106.942C323.448 106.543 323.358 106.239 323.177 106.032C322.996 105.819 322.739 105.713 322.4 105.713C322.045 105.713 321.759 105.839 321.548 106.092C321.344 106.345 321.238 106.689 321.238 107.124V109.058H320.62V103.749H321.238V105.827C321.367 105.625 321.533 105.46 321.736 105.334C321.947 105.208 322.204 105.144 322.506 105.144ZM330.481 103.749V109.058H329.946L329.863 108.436C329.538 108.881 329.101 109.103 328.543 109.103C328.185 109.103 327.864 109.025 327.585 108.868C327.306 108.712 327.087 108.484 326.929 108.186C326.771 107.887 326.695 107.533 326.695 107.124C326.695 106.734 326.771 106.391 326.929 106.092C327.087 105.794 327.31 105.562 327.593 105.395C327.872 105.228 328.188 105.144 328.543 105.144C328.852 105.144 329.12 105.202 329.342 105.319C329.561 105.43 329.735 105.584 329.863 105.781V103.749H330.481ZM328.603 108.55C328.848 108.55 329.067 108.492 329.259 108.375C329.456 108.254 329.606 108.087 329.712 107.875C329.818 107.657 329.87 107.412 329.87 107.139C329.87 106.861 329.818 106.613 329.712 106.396C329.606 106.173 329.456 106.001 329.259 105.88C329.067 105.759 328.848 105.698 328.603 105.698C328.219 105.698 327.909 105.832 327.676 106.1C327.442 106.363 327.329 106.704 327.329 107.124C327.329 107.544 327.442 107.887 327.676 108.155C327.909 108.418 328.219 108.55 328.603 108.55ZM334.92 108.489V109.058H334.58C334.335 109.058 334.158 109.007 334.052 108.906C333.947 108.805 333.89 108.656 333.886 108.459C333.589 108.888 333.159 109.103 332.597 109.103C332.171 109.103 331.824 109.002 331.563 108.8C331.307 108.598 331.179 108.322 331.179 107.973C331.179 107.584 331.311 107.286 331.571 107.078C331.839 106.871 332.223 106.767 332.725 106.767H333.856V106.502C333.856 106.249 333.77 106.052 333.6 105.91C333.434 105.769 333.2 105.698 332.898 105.698C332.631 105.698 332.412 105.759 332.235 105.88C332.065 105.996 331.959 106.153 331.918 106.35H331.3C331.345 105.971 331.511 105.675 331.797 105.463C332.088 105.251 332.465 105.144 332.929 105.144C333.423 105.144 333.8 105.266 334.067 105.508C334.339 105.746 334.475 106.09 334.475 106.54V108.208C334.475 108.395 334.561 108.489 334.731 108.489H334.92ZM333.856 107.291H332.665C332.091 107.291 331.805 107.506 331.805 107.935C331.805 108.128 331.88 108.282 332.031 108.398C332.182 108.514 332.386 108.572 332.642 108.572C333.019 108.572 333.317 108.474 333.532 108.277C333.747 108.075 333.856 107.809 333.856 107.48V107.291ZM335.651 105.759H334.957V105.19H335.651V104.105H336.27V105.19H337.243V105.759H336.27V108.042C336.27 108.203 336.3 108.319 336.36 108.39C336.428 108.456 336.537 108.489 336.692 108.489H337.363V109.058H336.654C336.292 109.058 336.036 108.977 335.878 108.815C335.727 108.653 335.651 108.398 335.651 108.049V105.759ZM341.342 108.489V109.058H341.002C340.757 109.058 340.58 109.007 340.474 108.906C340.369 108.805 340.316 108.656 340.309 108.459C340.014 108.888 339.584 109.103 339.019 109.103C338.593 109.103 338.25 109.002 337.986 108.8C337.729 108.598 337.601 108.322 337.601 107.973C337.601 107.584 337.733 107.286 337.993 107.078C338.261 106.871 338.645 106.767 339.147 106.767H340.278V106.502C340.278 106.249 340.195 106.052 340.022 105.91C339.856 105.769 339.622 105.698 339.32 105.698C339.057 105.698 338.834 105.759 338.657 105.88C338.487 105.996 338.381 106.153 338.34 106.35H337.722C337.767 105.971 337.933 105.675 338.219 105.463C338.513 105.251 338.891 105.144 339.351 105.144C339.845 105.144 340.226 105.266 340.49 105.508C340.761 105.746 340.897 106.09 340.897 106.54V108.208C340.897 108.395 340.984 108.489 341.153 108.489H341.342ZM340.278 107.291H339.087C338.514 107.291 338.227 107.506 338.227 107.935C338.227 108.128 338.302 108.282 338.453 108.398C338.604 108.514 338.808 108.572 339.064 108.572C339.441 108.572 339.739 108.474 339.954 108.277C340.173 108.075 340.278 107.809 340.278 107.48V107.291Z" fill="#0F172A"/>
</g>
<g filter="url(#filter2_d_2324_2840)">
<path d="M132.937 172.195H43.9412C41.5461 172.195 39.6045 174.148 39.6045 176.556V222.061C39.6045 224.47 41.5461 226.422 43.9412 226.422H132.937C135.332 226.422 137.274 224.47 137.274 222.061V176.556C137.274 174.148 135.332 172.195 132.937 172.195Z" stroke="#1B49F5" stroke-width="0.5"/>
<path d="M97.4895 190.208C97.4895 185.182 93.4375 181.107 88.4391 181.107C83.4407 181.107 79.3887 185.182 79.3887 190.208C79.3887 195.235 83.4407 199.309 88.4391 199.309C93.4375 199.309 97.4895 195.235 97.4895 190.208Z" fill="#1B49F5"/>
<mask id="mask2_2324_2840" style="mask-type:luminance" maskUnits="userSpaceOnUse" x="83" y="185" width="10" height="10">
<path d="M92.964 185.657H83.9136V194.758H92.964V185.657Z" fill="white"/>
</mask>
<g mask="url(#mask2_2324_2840)">
<path d="M84.7617 189.07H92.1152L88.4385 186.795L84.7617 189.07Z" stroke="white" stroke-width="0.56723" stroke-linecap="round" stroke-linejoin="round"/>
<path d="M85.8936 189.071V191.915" stroke="white" stroke-width="0.56723" stroke-linecap="round" stroke-linejoin="round"/>
<path d="M87.5898 189.071V191.915" stroke="white" stroke-width="0.56723" stroke-linecap="round" stroke-linejoin="round"/>
<path d="M89.2871 189.071V191.915" stroke="white" stroke-width="0.56723" stroke-linecap="round" stroke-linejoin="round"/>
<path d="M90.9849 189.071V191.915" stroke="white" stroke-width="0.56723" stroke-linecap="round" stroke-linejoin="round"/>
<path d="M85.0444 191.915H91.8323" stroke="white" stroke-width="0.56723" stroke-linecap="round" stroke-linejoin="round"/>
<path d="M84.479 193.052H92.3981" stroke="white" stroke-width="0.56723" stroke-linecap="round" stroke-linejoin="round"/>
</g>
<path d="M68.8006 210.686C69.3587 210.686 69.7886 210.807 70.0903 211.05C70.3969 211.293 70.5504 211.629 70.5504 212.059C70.5504 212.372 70.4696 212.632 70.309 212.84C70.148 213.042 69.9142 213.184 69.6076 213.265C70.3818 213.411 70.7691 213.833 70.7691 214.531C70.7691 214.986 70.6031 215.345 70.2713 215.608C69.9443 215.866 69.4718 215.995 68.8534 215.995H66.9302V210.686H68.8006ZM67.5863 212.991H68.8308C69.1675 212.991 69.4288 212.916 69.6151 212.764C69.801 212.612 69.8942 212.403 69.8942 212.134C69.8942 211.866 69.801 211.659 69.6151 211.513C69.4341 211.361 69.1724 211.285 68.8308 211.285H67.5863V212.991ZM67.5863 215.396H68.8534C69.2554 215.396 69.5623 215.317 69.7735 215.161C69.9896 215.004 70.0978 214.786 70.0978 214.508C70.0978 214.21 69.9896 213.982 69.7735 213.826C69.5571 213.664 69.2505 213.583 68.8534 213.583H67.5863V215.396ZM75.1363 215.426V215.995H74.7969C74.5503 215.995 74.3745 215.944 74.2689 215.843C74.1634 215.742 74.1079 215.593 74.103 215.396C73.8062 215.825 73.3763 216.04 72.8133 216.04C72.3857 216.04 72.0414 215.939 71.7801 215.737C71.5236 215.535 71.3954 215.259 71.3954 214.91C71.3954 214.521 71.5259 214.223 71.7876 214.015C72.0538 213.808 72.4385 213.704 72.9416 213.704H74.0729V213.439C74.0729 213.186 73.9872 212.989 73.8164 212.847C73.6505 212.706 73.4167 212.635 73.115 212.635C72.8484 212.635 72.627 212.696 72.4513 212.817C72.2801 212.933 72.1745 213.09 72.1345 213.287H71.5161C71.5614 212.908 71.7273 212.612 72.0139 212.4C72.3054 212.188 72.6825 212.081 73.1452 212.081C73.6377 212.081 74.0174 212.203 74.284 212.445C74.5555 212.683 74.6913 213.027 74.6913 213.477V215.145C74.6913 215.332 74.7765 215.426 74.9477 215.426H75.1363ZM74.0729 214.228H72.8812C72.308 214.228 72.0214 214.443 72.0214 214.872C72.0214 215.065 72.0968 215.219 72.2477 215.335C72.3985 215.451 72.6022 215.509 72.8586 215.509C73.2357 215.509 73.5321 215.411 73.7485 215.214C73.9646 215.012 74.0729 214.746 74.0729 214.417V214.228ZM77.4969 212.081C77.9645 212.081 78.3394 212.223 78.6207 212.506C78.9073 212.789 79.0506 213.234 79.0506 213.841V215.995H78.4321V213.879C78.4321 213.48 78.3416 213.176 78.1606 212.969C77.9849 212.756 77.7285 212.65 77.3913 212.65C77.0293 212.65 76.7454 212.776 76.5391 213.029C76.3332 213.282 76.2299 213.626 76.2299 214.061V215.995H75.6114V212.127H76.1469L76.2299 212.65C76.5217 212.271 76.9441 212.081 77.4969 212.081ZM79.8391 210.686H80.4576V214.205L82.4109 212.127H83.1501L81.6718 213.712L83.2556 215.995H82.509L81.2268 214.159L80.4576 214.971V215.995H79.8391V210.686ZM84.0445 210.633C84.1603 210.633 84.2557 210.671 84.3311 210.747C84.4066 210.822 84.4443 210.918 84.4443 211.035C84.4443 211.151 84.4066 211.247 84.3311 211.323C84.2557 211.399 84.1603 211.437 84.0445 211.437C83.9292 211.437 83.8334 211.399 83.7579 211.323C83.6825 211.247 83.6448 211.151 83.6448 211.035C83.6448 210.918 83.6825 210.822 83.7579 210.747C83.8334 210.671 83.9292 210.633 84.0445 210.633ZM83.7353 212.127H84.3538V215.995H83.7353V212.127ZM87.0866 212.081C87.5542 212.081 87.9287 212.223 88.2104 212.506C88.497 212.789 88.6403 213.234 88.6403 213.841V215.995H88.0218V213.879C88.0218 213.48 87.9313 213.176 87.7503 212.969C87.5742 212.756 87.3178 212.65 86.981 212.65C86.619 212.65 86.3351 212.776 86.1288 213.029C85.9225 213.282 85.8196 213.626 85.8196 214.061V215.995H85.2011V212.127H85.7366L85.8196 212.65C86.1111 212.271 86.5334 212.081 87.0866 212.081ZM93.0791 212.127V215.805C93.0791 216.973 92.443 217.557 91.171 217.557C90.6732 217.557 90.266 217.443 89.9492 217.216C89.6373 216.988 89.4563 216.665 89.4062 216.245H90.0397C90.0898 216.488 90.2181 216.675 90.4243 216.806C90.6306 216.938 90.8946 217.004 91.2163 217.004C92.0459 217.004 92.4607 216.597 92.4607 215.782V215.327C92.1843 215.803 91.7442 216.04 91.1408 216.04C90.7837 216.04 90.4647 215.962 90.183 215.805C89.9066 215.649 89.6879 215.421 89.5268 215.123C89.3711 214.824 89.293 214.47 89.293 214.061C89.293 213.671 89.3711 213.328 89.5268 213.029C89.6879 212.731 89.9088 212.499 90.1905 212.332C90.4722 212.165 90.789 212.081 91.1408 212.081C91.4527 212.081 91.7189 212.145 91.9403 212.271C92.1616 212.392 92.3351 212.567 92.4607 212.794L92.5437 212.127H93.0791ZM91.2012 215.487C91.4474 215.487 91.6661 215.429 91.8573 215.312C92.0534 215.191 92.2043 215.024 92.3099 214.812C92.4154 214.594 92.4682 214.349 92.4682 214.076C92.4682 213.798 92.4154 213.55 92.3099 213.333C92.2043 213.11 92.0534 212.938 91.8573 212.817C91.6661 212.696 91.4474 212.635 91.2012 212.635C90.8192 212.635 90.51 212.769 90.2735 213.037C90.0423 213.3 89.9266 213.641 89.9266 214.061C89.9266 214.481 90.0423 214.824 90.2735 215.092C90.51 215.355 90.8192 215.487 91.2012 215.487ZM99.5457 210.686V215.995H99.0102L98.9272 215.373C98.6056 215.818 98.1655 216.04 97.6074 216.04C97.2506 216.04 96.9312 215.962 96.6495 215.805C96.3731 215.649 96.1544 215.421 95.9934 215.123C95.8376 214.824 95.7596 214.47 95.7596 214.061C95.7596 213.671 95.8376 213.328 95.9934 213.029C96.1544 212.731 96.3758 212.499 96.6571 212.332C96.9388 212.165 97.2555 212.081 97.6074 212.081C97.9192 212.081 98.1858 212.139 98.4068 212.256C98.6282 212.367 98.8017 212.521 98.9272 212.718V210.686H99.5457ZM97.6677 215.487C97.9143 215.487 98.1331 215.429 98.3239 215.312C98.52 215.191 98.6708 215.024 98.7764 214.812C98.882 214.594 98.9348 214.349 98.9348 214.076C98.9348 213.798 98.882 213.55 98.7764 213.333C98.6708 213.11 98.52 212.938 98.3239 212.817C98.1331 212.696 97.9143 212.635 97.6677 212.635C97.2857 212.635 96.9765 212.769 96.74 213.037C96.5089 213.3 96.3931 213.641 96.3931 214.061C96.3931 214.481 96.5089 214.824 96.74 215.092C96.9765 215.355 97.2857 215.487 97.6677 215.487ZM103.986 215.426V215.995H103.646C103.4 215.995 103.224 215.944 103.118 215.843C103.013 215.742 102.958 215.593 102.952 215.396C102.656 215.825 102.226 216.04 101.663 216.04C101.235 216.04 100.891 215.939 100.629 215.737C100.373 215.535 100.245 215.259 100.245 214.91C100.245 214.521 100.376 214.223 100.637 214.015C100.904 213.808 101.288 213.704 101.791 213.704H102.922V213.439C102.922 213.186 102.837 212.989 102.666 212.847C102.5 212.706 102.266 212.635 101.964 212.635C101.698 212.635 101.477 212.696 101.301 212.817C101.13 212.933 101.024 213.09 100.984 213.287H100.365C100.411 212.908 100.577 212.612 100.863 212.4C101.155 212.188 101.532 212.081 101.995 212.081C102.487 212.081 102.867 212.203 103.133 212.445C103.405 212.683 103.541 213.027 103.541 213.477V215.145C103.541 215.332 103.626 215.426 103.797 215.426H103.986ZM102.922 214.228H101.731C101.157 214.228 100.871 214.443 100.871 214.872C100.871 215.065 100.946 215.219 101.097 215.335C101.248 215.451 101.452 215.509 101.708 215.509C102.085 215.509 102.382 215.411 102.598 215.214C102.814 215.012 102.922 214.746 102.922 214.417V214.228ZM104.718 212.696H104.024V212.127H104.718V211.042H105.336V212.127H106.309V212.696H105.336V214.979C105.336 215.14 105.366 215.256 105.427 215.327C105.492 215.393 105.603 215.426 105.758 215.426H106.43V215.995H105.721C105.359 215.995 105.1 215.914 104.944 215.752C104.793 215.59 104.718 215.335 104.718 214.986V212.696ZM110.408 215.426V215.995H110.069C109.822 215.995 109.647 215.944 109.541 215.843C109.436 215.742 109.38 215.593 109.375 215.396C109.078 215.825 108.649 216.04 108.086 216.04C107.658 216.04 107.314 215.939 107.052 215.737C106.796 215.535 106.668 215.259 106.668 214.91C106.668 214.521 106.798 214.223 107.06 214.015C107.326 213.808 107.711 213.704 108.214 213.704H109.345V213.439C109.345 213.186 109.259 212.989 109.089 212.847C108.923 212.706 108.689 212.635 108.387 212.635C108.121 212.635 107.899 212.696 107.723 212.817C107.552 212.933 107.447 213.09 107.407 213.287H106.788C106.834 212.908 106.999 212.612 107.286 212.4C107.578 212.188 107.955 212.081 108.417 212.081C108.91 212.081 109.29 212.203 109.556 212.445C109.828 212.683 109.963 213.027 109.963 213.477V215.145C109.963 215.332 110.049 215.426 110.22 215.426H110.408ZM109.345 214.228H108.153C107.58 214.228 107.294 214.443 107.294 214.872C107.294 215.065 107.369 215.219 107.52 215.335C107.671 215.451 107.874 215.509 108.131 215.509C108.508 215.509 108.804 215.411 109.021 215.214C109.237 215.012 109.345 214.746 109.345 214.417V214.228Z" fill="#0F172A"/>
</g>
<g filter="url(#filter3_d_2324_2840)">
<path d="M311.307 172.195H222.311C219.916 172.195 217.974 174.148 217.974 176.556V222.061C217.974 224.47 219.916 226.422 222.311 226.422H311.307C313.702 226.422 315.643 224.47 315.643 222.061V176.556C315.643 174.148 313.702 172.195 311.307 172.195Z" stroke="#1B49F5" stroke-width="0.5"/>
<path d="M275.859 190.208C275.859 185.182 271.807 181.107 266.808 181.107C261.81 181.107 257.758 185.182 257.758 190.208C257.758 195.235 261.81 199.309 266.808 199.309C271.807 199.309 275.859 195.235 275.859 190.208Z" fill="#1B49F5"/>
<mask id="mask3_2324_2840" style="mask-type:luminance" maskUnits="userSpaceOnUse" x="262" y="185" width="10" height="10">
<path d="M271.334 185.657H262.283V194.758H271.334V185.657Z" fill="white"/>
</mask>
<g mask="url(#mask3_2324_2840)">
<path d="M265.677 187.933L263.131 192.483" stroke="white" stroke-width="0.56723" stroke-linecap="round" stroke-linejoin="round"/>
<path d="M267.938 187.933L270.484 192.483" stroke="white" stroke-width="0.56723" stroke-linecap="round" stroke-linejoin="round"/>
<path d="M266.808 187.933V188.501" stroke="white" stroke-width="0.56723" stroke-linecap="round" stroke-linejoin="round"/>
<path d="M266.808 189.924V190.493" stroke="white" stroke-width="0.56723" stroke-linecap="round" stroke-linejoin="round"/>
<path d="M266.808 191.915V192.483" stroke="white" stroke-width="0.56723" stroke-linecap="round" stroke-linejoin="round"/>
<path d="M263.131 187.933H270.485" stroke="white" stroke-width="0.56723" stroke-linecap="round" stroke-linejoin="round"/>
</g>
<path d="M247.38 210.686H248.941C249.484 210.686 249.954 210.797 250.351 211.02C250.754 211.237 251.06 211.546 251.272 211.945C251.488 212.344 251.596 212.809 251.596 213.34C251.596 213.866 251.488 214.331 251.272 214.736C251.06 215.135 250.754 215.446 250.351 215.669C249.954 215.886 249.484 215.995 248.941 215.995H247.38V210.686ZM248.941 215.388C249.57 215.388 250.057 215.203 250.404 214.834C250.751 214.465 250.925 213.967 250.925 213.34C250.925 212.708 250.751 212.21 250.404 211.846C250.062 211.477 249.575 211.293 248.941 211.293H248.036V215.388H248.941ZM254.288 212.127V212.734H253.979C253.612 212.734 253.348 212.858 253.187 213.105C253.031 213.353 252.953 213.659 252.953 214.023V215.995H252.335V212.127H252.87L252.953 212.711C253.064 212.534 253.207 212.392 253.383 212.286C253.559 212.18 253.803 212.127 254.115 212.127H254.288ZM255.163 210.633C255.278 210.633 255.374 210.671 255.449 210.747C255.525 210.822 255.563 210.918 255.563 211.035C255.563 211.151 255.525 211.247 255.449 211.323C255.374 211.399 255.278 211.437 255.163 211.437C255.047 211.437 254.952 211.399 254.876 211.323C254.801 211.247 254.763 211.151 254.763 211.035C254.763 210.918 254.801 210.822 254.876 210.747C254.952 210.671 255.047 210.633 255.163 210.633ZM254.854 212.127H255.472V215.995H254.854V212.127ZM255.934 212.127H256.598L257.76 215.289L258.914 212.127H259.562L258.122 215.995H257.375L255.934 212.127ZM260.333 210.633C260.449 210.633 260.544 210.671 260.62 210.747C260.695 210.822 260.733 210.918 260.733 211.035C260.733 211.151 260.695 211.247 260.62 211.323C260.544 211.399 260.449 211.437 260.333 211.437C260.218 211.437 260.122 211.399 260.047 211.323C259.971 211.247 259.934 211.151 259.934 211.035C259.934 210.918 259.971 210.822 260.047 210.747C260.122 210.671 260.218 210.633 260.333 210.633ZM260.024 212.127H260.643V215.995H260.024V212.127ZM263.375 212.081C263.843 212.081 264.217 212.223 264.499 212.506C264.785 212.789 264.929 213.234 264.929 213.841V215.995H264.31V213.879C264.31 213.48 264.22 213.176 264.039 212.969C263.863 212.756 263.607 212.65 263.269 212.65C262.907 212.65 262.623 212.776 262.417 213.029C262.211 213.282 262.108 213.626 262.108 214.061V215.995H261.49V212.127H262.025L262.108 212.65C262.4 212.271 262.822 212.081 263.375 212.081ZM269.368 212.127V215.805C269.368 216.973 268.732 217.557 267.459 217.557C266.962 217.557 266.554 217.443 266.238 217.216C265.926 216.988 265.745 216.665 265.695 216.245H266.328C266.379 216.488 266.507 216.675 266.713 216.806C266.919 216.938 267.183 217.004 267.505 217.004C268.334 217.004 268.749 216.597 268.749 215.782V215.327C268.473 215.803 268.033 216.04 267.429 216.04C267.072 216.04 266.753 215.962 266.471 215.805C266.195 215.649 265.976 215.421 265.815 215.123C265.66 214.824 265.581 214.47 265.581 214.061C265.581 213.671 265.66 213.328 265.815 213.029C265.976 212.731 266.198 212.499 266.479 212.332C266.761 212.165 267.077 212.081 267.429 212.081C267.741 212.081 268.008 212.145 268.229 212.271C268.45 212.392 268.624 212.567 268.749 212.794L268.832 212.127H269.368ZM267.49 215.487C267.736 215.487 267.955 215.429 268.146 215.312C268.342 215.191 268.493 215.024 268.598 214.812C268.704 214.594 268.757 214.349 268.757 214.076C268.757 213.798 268.704 213.55 268.598 213.333C268.493 213.11 268.342 212.938 268.146 212.817C267.955 212.696 267.736 212.635 267.49 212.635C267.108 212.635 266.798 212.769 266.562 213.037C266.331 213.3 266.215 213.641 266.215 214.061C266.215 214.481 266.331 214.824 266.562 215.092C266.798 215.355 267.108 215.487 267.49 215.487ZM275.834 210.686V215.995H275.299L275.216 215.373C274.894 215.818 274.454 216.04 273.896 216.04C273.539 216.04 273.22 215.962 272.938 215.805C272.662 215.649 272.443 215.421 272.282 215.123C272.126 214.824 272.048 214.47 272.048 214.061C272.048 213.671 272.126 213.328 272.282 213.029C272.443 212.731 272.664 212.499 272.946 212.332C273.227 212.165 273.544 212.081 273.896 212.081C274.208 212.081 274.474 212.139 274.696 212.256C274.917 212.367 275.09 212.521 275.216 212.718V210.686H275.834ZM273.956 215.487C274.203 215.487 274.421 215.429 274.613 215.312C274.809 215.191 274.96 215.024 275.065 214.812C275.171 214.594 275.224 214.349 275.224 214.076C275.224 213.798 275.171 213.55 275.065 213.333C274.96 213.11 274.809 212.938 274.613 212.817C274.421 212.696 274.203 212.635 273.956 212.635C273.574 212.635 273.265 212.769 273.029 213.037C272.797 213.3 272.682 213.641 272.682 214.061C272.682 214.481 272.797 214.824 273.029 215.092C273.265 215.355 273.574 215.487 273.956 215.487ZM280.274 215.426V215.995H279.935C279.688 215.995 279.513 215.944 279.407 215.843C279.302 215.742 279.246 215.593 279.241 215.396C278.944 215.825 278.515 216.04 277.951 216.04C277.524 216.04 277.18 215.939 276.918 215.737C276.662 215.535 276.534 215.259 276.534 214.91C276.534 214.521 276.664 214.223 276.926 214.015C277.192 213.808 277.577 213.704 278.08 213.704H279.211V213.439C279.211 213.186 279.125 212.989 278.955 212.847C278.789 212.706 278.555 212.635 278.253 212.635C277.987 212.635 277.765 212.696 277.589 212.817C277.418 212.933 277.313 213.09 277.273 213.287H276.654C276.7 212.908 276.865 212.612 277.152 212.4C277.444 212.188 277.821 212.081 278.283 212.081C278.776 212.081 279.156 212.203 279.422 212.445C279.694 212.683 279.829 213.027 279.829 213.477V215.145C279.829 215.332 279.915 215.426 280.086 215.426H280.274ZM279.211 214.228H278.019C277.446 214.228 277.16 214.443 277.16 214.872C277.16 215.065 277.235 215.219 277.386 215.335C277.537 215.451 277.74 215.509 277.997 215.509C278.374 215.509 278.67 215.411 278.887 215.214C279.103 215.012 279.211 214.746 279.211 214.417V214.228ZM281.006 212.696H280.313V212.127H281.006V211.042H281.625V212.127H282.598V212.696H281.625V214.979C281.625 215.14 281.655 215.256 281.715 215.327C281.781 215.393 281.891 215.426 282.047 215.426H282.718V215.995H282.009C281.647 215.995 281.388 215.914 281.233 215.752C281.082 215.59 281.006 215.335 281.006 214.986V212.696ZM286.697 215.426V215.995H286.357C286.111 215.995 285.935 215.944 285.83 215.843C285.724 215.742 285.668 215.593 285.664 215.396C285.367 215.825 284.937 216.04 284.374 216.04C283.947 216.04 283.602 215.939 283.341 215.737C283.084 215.535 282.956 215.259 282.956 214.91C282.956 214.521 283.087 214.223 283.348 214.015C283.615 213.808 283.999 213.704 284.502 213.704H285.633V213.439C285.633 213.186 285.548 212.989 285.377 212.847C285.211 212.706 284.977 212.635 284.676 212.635C284.409 212.635 284.188 212.696 284.012 212.817C283.841 212.933 283.735 213.09 283.695 213.287H283.077C283.122 212.908 283.288 212.612 283.574 212.4C283.866 212.188 284.243 212.081 284.706 212.081C285.199 212.081 285.578 212.203 285.845 212.445C286.116 212.683 286.252 213.027 286.252 213.477V215.145C286.252 215.332 286.337 215.426 286.508 215.426H286.697ZM285.633 214.228H284.442C283.869 214.228 283.582 214.443 283.582 214.872C283.582 215.065 283.657 215.219 283.808 215.335C283.959 215.451 284.163 215.509 284.419 215.509C284.796 215.509 285.093 215.411 285.309 215.214C285.525 215.012 285.633 214.746 285.633 214.417V214.228Z" fill="#0F172A"/>
</g>
<path d="M221.933 86.3057H132.937C130.438 86.3057 128.412 88.343 128.412 90.8562V136.361C128.412 138.874 130.438 140.912 132.937 140.912H221.933C224.432 140.912 226.458 138.874 226.458 136.361V90.8562C226.458 88.343 224.432 86.3057 221.933 86.3057Z" fill="#1B49F5"/>
<path d="M186.297 104.507C186.297 99.5855 182.329 95.5957 177.435 95.5957C172.541 95.5957 168.573 99.5855 168.573 104.507C168.573 109.429 172.541 113.418 177.435 113.418C182.329 113.418 186.297 109.429 186.297 104.507Z" stroke="#BCD4FF" stroke-width="0.378153"/>
<mask id="mask4_2324_2840" style="mask-type:luminance" maskUnits="userSpaceOnUse" x="172" y="99" width="10" height="11">
<path d="M181.96 99.957H172.909V109.058H181.96V99.957Z" fill="white"/>
</mask>
<g mask="url(#mask4_2324_2840)">
<path d="M174.607 107.352V104.792H176.304" stroke="white" stroke-width="0.56723" stroke-linecap="round" stroke-linejoin="round"/>
<path d="M180.829 107.352H174.041" stroke="white" stroke-width="0.56723" stroke-linecap="round" stroke-linejoin="round"/>
<path d="M176.304 107.352V103.086H178.283" stroke="white" stroke-width="0.56723" stroke-linecap="round" stroke-linejoin="round"/>
<path d="M178.284 107.351V101.378H180.263V107.351" stroke="white" stroke-width="0.56723" stroke-linecap="round" stroke-linejoin="round"/>
</g>
<path d="M144.561 127.639C144.561 127.108 144.664 126.638 144.87 126.228C145.076 125.819 145.37 125.503 145.752 125.28C146.135 125.053 146.577 124.939 147.08 124.939C147.663 124.939 148.151 125.098 148.543 125.417C148.94 125.735 149.189 126.17 149.289 126.721H148.633C148.538 126.352 148.349 126.064 148.068 125.857C147.791 125.649 147.452 125.546 147.049 125.546C146.687 125.546 146.368 125.634 146.092 125.811C145.815 125.988 145.601 126.236 145.451 126.554C145.305 126.868 145.232 127.229 145.232 127.639C145.232 128.044 145.305 128.405 145.451 128.723C145.601 129.042 145.815 129.29 146.092 129.467C146.368 129.644 146.687 129.732 147.049 129.732C147.457 129.732 147.796 129.631 148.068 129.429C148.339 129.221 148.525 128.931 148.626 128.557H149.282C149.182 129.108 148.935 129.543 148.543 129.861C148.156 130.18 147.668 130.339 147.08 130.339C146.577 130.339 146.135 130.228 145.752 130.005C145.37 129.778 145.076 129.462 144.87 129.057C144.664 128.648 144.561 128.175 144.561 127.639ZM151.793 130.339C151.421 130.339 151.089 130.255 150.798 130.089C150.511 129.922 150.287 129.689 150.127 129.391C149.966 129.092 149.885 128.749 149.885 128.359C149.885 127.97 149.966 127.626 150.127 127.328C150.287 127.03 150.511 126.797 150.798 126.63C151.089 126.463 151.421 126.38 151.793 126.38C152.165 126.38 152.495 126.463 152.781 126.63C153.073 126.797 153.299 127.03 153.46 127.328C153.621 127.626 153.701 127.97 153.701 128.359C153.701 128.749 153.621 129.092 153.46 129.391C153.299 129.689 153.073 129.922 152.781 130.089C152.495 130.255 152.165 130.339 151.793 130.339ZM151.793 129.785C152.044 129.785 152.266 129.725 152.457 129.603C152.653 129.482 152.804 129.312 152.91 129.095C153.015 128.878 153.068 128.632 153.068 128.359C153.068 128.086 153.015 127.841 152.91 127.624C152.804 127.406 152.653 127.237 152.457 127.116C152.266 126.994 152.044 126.934 151.793 126.934C151.542 126.934 151.318 126.994 151.122 127.116C150.931 127.237 150.783 127.406 150.677 127.624C150.572 127.841 150.519 128.086 150.519 128.359C150.519 128.632 150.572 128.878 150.677 129.095C150.783 129.312 150.931 129.482 151.122 129.603C151.318 129.725 151.542 129.785 151.793 129.785ZM156.296 126.38C156.764 126.38 157.138 126.521 157.42 126.805C157.706 127.088 157.85 127.533 157.85 128.139V130.293H157.231V128.177C157.231 127.778 157.141 127.475 156.96 127.267C156.784 127.055 156.527 126.949 156.19 126.949C155.828 126.949 155.544 127.075 155.338 127.328C155.132 127.581 155.029 127.924 155.029 128.359V130.293H154.41V126.425H154.946L155.029 126.949C155.321 126.57 155.743 126.38 156.296 126.38ZM159.121 129.019C159.131 129.252 159.232 129.441 159.422 129.588C159.619 129.735 159.87 129.808 160.177 129.808C160.448 129.808 160.667 129.755 160.833 129.649C161.004 129.538 161.089 129.394 161.089 129.216C161.089 129.065 161.049 128.948 160.969 128.868C160.888 128.787 160.783 128.731 160.652 128.701C160.526 128.67 160.345 128.64 160.109 128.61C159.777 128.569 159.505 128.516 159.294 128.45C159.083 128.385 158.912 128.281 158.781 128.139C158.651 127.993 158.585 127.793 158.585 127.54C158.585 127.313 158.648 127.111 158.774 126.934C158.905 126.757 159.081 126.62 159.302 126.524C159.523 126.423 159.772 126.372 160.048 126.372C160.501 126.372 160.868 126.479 161.15 126.691C161.436 126.903 161.595 127.207 161.625 127.601H161.006C160.981 127.399 160.883 127.232 160.712 127.1C160.541 126.969 160.328 126.903 160.071 126.903C159.81 126.903 159.599 126.959 159.438 127.07C159.277 127.176 159.196 127.318 159.196 127.495C159.196 127.626 159.234 127.727 159.309 127.798C159.385 127.869 159.481 127.917 159.596 127.942C159.717 127.968 159.898 127.995 160.139 128.026C160.476 128.066 160.753 128.122 160.969 128.193C161.19 128.263 161.366 128.377 161.497 128.534C161.632 128.69 161.7 128.903 161.7 129.171C161.7 129.403 161.632 129.608 161.497 129.785C161.361 129.962 161.178 130.099 160.946 130.195C160.715 130.291 160.458 130.339 160.177 130.339C159.674 130.339 159.269 130.222 158.962 129.99C158.661 129.758 158.508 129.434 158.502 129.019H159.121ZM165.713 126.425V130.293H165.177L165.094 129.778C164.803 130.152 164.393 130.339 163.865 130.339C163.407 130.339 163.04 130.197 162.764 129.914C162.487 129.631 162.349 129.186 162.349 128.579V126.425H162.968V128.541C162.968 128.941 163.053 129.247 163.224 129.459C163.4 129.667 163.649 129.77 163.971 129.77C164.323 129.77 164.597 129.644 164.793 129.391C164.994 129.138 165.094 128.794 165.094 128.359V126.425H165.713ZM170.847 126.38C171.28 126.38 171.629 126.516 171.895 126.79C172.167 127.063 172.303 127.487 172.303 128.064V130.293H171.684V128.102C171.684 127.727 171.604 127.442 171.443 127.245C171.287 127.047 171.064 126.949 170.772 126.949C170.45 126.949 170.196 127.063 170.01 127.29C169.829 127.518 169.738 127.829 169.738 128.223V130.293H169.12V128.102C169.12 127.727 169.04 127.442 168.879 127.245C168.718 127.047 168.489 126.949 168.192 126.949C167.881 126.949 167.632 127.07 167.446 127.313C167.265 127.551 167.174 127.864 167.174 128.253V130.293H166.556V126.425H167.091L167.174 126.956C167.451 126.572 167.825 126.38 168.298 126.38C168.575 126.38 168.818 126.443 169.03 126.57C169.246 126.691 169.407 126.873 169.512 127.116C169.789 126.625 170.234 126.38 170.847 126.38ZM172.96 128.359C172.96 127.965 173.036 127.619 173.187 127.32C173.342 127.022 173.559 126.792 173.835 126.63C174.112 126.463 174.428 126.38 174.786 126.38C175.137 126.38 175.449 126.453 175.721 126.6C175.992 126.747 176.206 126.959 176.362 127.237C176.518 127.515 176.601 127.841 176.611 128.215C176.611 128.271 176.606 128.359 176.596 128.481H173.609V128.534C173.619 128.913 173.735 129.216 173.956 129.444C174.177 129.671 174.466 129.785 174.823 129.785C175.1 129.785 175.334 129.717 175.525 129.58C175.721 129.439 175.852 129.244 175.917 128.996H176.543C176.467 129.391 176.279 129.714 175.977 129.967C175.676 130.215 175.306 130.339 174.869 130.339C174.487 130.339 174.152 130.258 173.865 130.096C173.579 129.929 173.355 129.697 173.194 129.398C173.038 129.095 172.96 128.749 172.96 128.359ZM175.97 127.965C175.94 127.636 175.816 127.381 175.6 127.199C175.389 127.017 175.12 126.926 174.793 126.926C174.502 126.926 174.245 127.022 174.024 127.214C173.802 127.406 173.677 127.657 173.647 127.965H175.97ZM179.27 126.425V127.032H178.96C178.594 127.032 178.33 127.156 178.169 127.404C178.013 127.651 177.935 127.957 177.935 128.321V130.293H177.316V126.425H177.852L177.935 127.009C178.046 126.832 178.189 126.691 178.365 126.585C178.541 126.479 178.785 126.425 179.096 126.425H179.27ZM183.763 126.425V127.032H183.454C183.086 127.032 182.822 127.156 182.662 127.404C182.506 127.651 182.428 127.957 182.428 128.321V130.293H181.809V126.425H182.345L182.428 127.009C182.538 126.832 182.682 126.691 182.858 126.585C183.034 126.479 183.278 126.425 183.589 126.425H183.763ZM183.971 128.359C183.971 127.965 184.047 127.619 184.198 127.32C184.354 127.022 184.57 126.792 184.846 126.63C185.123 126.463 185.44 126.38 185.797 126.38C186.149 126.38 186.46 126.453 186.732 126.6C187.003 126.747 187.217 126.959 187.373 127.237C187.529 127.515 187.612 127.841 187.622 128.215C187.622 128.271 187.617 128.359 187.607 128.481H184.62V128.534C184.63 128.913 184.746 129.216 184.967 129.444C185.188 129.671 185.478 129.785 185.834 129.785C186.111 129.785 186.345 129.717 186.536 129.58C186.732 129.439 186.863 129.244 186.928 128.996H187.554C187.478 129.391 187.29 129.714 186.988 129.967C186.687 130.215 186.317 130.339 185.88 130.339C185.498 130.339 185.163 130.258 184.876 130.096C184.59 129.929 184.366 129.697 184.205 129.398C184.049 129.095 183.971 128.749 183.971 128.359ZM186.981 127.965C186.951 127.636 186.828 127.381 186.611 127.199C186.4 127.017 186.131 126.926 185.804 126.926C185.513 126.926 185.256 127.022 185.035 127.214C184.814 127.406 184.688 127.657 184.658 127.965H186.981ZM188.796 129.019C188.805 129.252 188.906 129.441 189.097 129.588C189.293 129.735 189.545 129.808 189.852 129.808C190.123 129.808 190.342 129.755 190.508 129.649C190.679 129.538 190.764 129.394 190.764 129.216C190.764 129.065 190.724 128.948 190.643 128.868C190.563 128.787 190.457 128.731 190.327 128.701C190.201 128.67 190.02 128.64 189.784 128.61C189.452 128.569 189.18 128.516 188.969 128.45C188.758 128.385 188.587 128.281 188.456 128.139C188.325 127.993 188.26 127.793 188.26 127.54C188.26 127.313 188.323 127.111 188.449 126.934C188.579 126.757 188.755 126.62 188.977 126.524C189.198 126.423 189.447 126.372 189.723 126.372C190.176 126.372 190.543 126.479 190.824 126.691C191.111 126.903 191.269 127.207 191.3 127.601H190.681C190.656 127.399 190.558 127.232 190.387 127.1C190.216 126.969 190.002 126.903 189.746 126.903C189.484 126.903 189.273 126.959 189.112 127.07C188.951 127.176 188.871 127.318 188.871 127.495C188.871 127.626 188.909 127.727 188.984 127.798C189.06 127.869 189.155 127.917 189.271 127.942C189.391 127.968 189.572 127.995 189.814 128.026C190.151 128.066 190.427 128.122 190.643 128.193C190.864 128.263 191.041 128.377 191.171 128.534C191.307 128.69 191.375 128.903 191.375 129.171C191.375 129.403 191.307 129.608 191.171 129.785C191.036 129.962 190.852 130.099 190.621 130.195C190.389 130.291 190.133 130.339 189.852 130.339C189.348 130.339 188.944 130.222 188.637 129.99C188.336 129.758 188.182 129.434 188.177 129.019H188.796ZM191.941 128.359C191.941 127.965 192.016 127.619 192.167 127.32C192.323 127.022 192.539 126.792 192.816 126.63C193.092 126.463 193.409 126.38 193.766 126.38C194.118 126.38 194.43 126.453 194.701 126.6C194.973 126.747 195.186 126.959 195.342 127.237C195.498 127.515 195.581 127.841 195.591 128.215C195.591 128.271 195.586 128.359 195.576 128.481H192.589V128.534C192.599 128.913 192.715 129.216 192.936 129.444C193.158 129.671 193.446 129.785 193.804 129.785C194.08 129.785 194.314 129.717 194.505 129.58C194.701 129.439 194.832 129.244 194.897 128.996H195.523C195.448 129.391 195.259 129.714 194.958 129.967C194.656 130.215 194.286 130.339 193.849 130.339C193.467 130.339 193.132 130.258 192.846 130.096C192.559 129.929 192.336 129.697 192.174 129.398C192.019 129.095 191.941 128.749 191.941 128.359ZM194.95 127.965C194.92 127.636 194.796 127.381 194.58 127.199C194.369 127.017 194.1 126.926 193.773 126.926C193.482 126.926 193.225 127.022 193.004 127.214C192.783 127.406 192.657 127.657 192.627 127.965H194.95ZM199.894 129.725V130.293H199.555C199.308 130.293 199.132 130.243 199.027 130.142C198.921 130.04 198.866 129.891 198.861 129.694C198.564 130.124 198.135 130.339 197.571 130.339C197.144 130.339 196.8 130.238 196.538 130.036C196.282 129.833 196.153 129.558 196.153 129.209C196.153 128.819 196.284 128.521 196.545 128.314C196.812 128.106 197.197 128.003 197.699 128.003H198.831V127.738C198.831 127.485 198.745 127.287 198.574 127.146C198.408 127.005 198.175 126.934 197.873 126.934C197.607 126.934 197.385 126.994 197.209 127.116C197.038 127.232 196.933 127.389 196.892 127.586H196.274C196.319 127.207 196.485 126.911 196.772 126.698C197.064 126.486 197.441 126.38 197.903 126.38C198.396 126.38 198.776 126.501 199.042 126.744C199.313 126.982 199.449 127.325 199.449 127.775V129.444C199.449 129.631 199.535 129.725 199.706 129.725H199.894ZM198.831 128.526H197.639C197.066 128.526 196.779 128.741 196.779 129.171C196.779 129.363 196.855 129.517 197.006 129.634C197.156 129.75 197.36 129.808 197.616 129.808C197.994 129.808 198.29 129.709 198.506 129.512C198.723 129.31 198.831 129.045 198.831 128.716V128.526ZM202.323 126.425V127.032H202.014C201.647 127.032 201.383 127.156 201.222 127.404C201.066 127.651 200.988 127.957 200.988 128.321V130.293H200.37V126.425H200.905L200.988 127.009C201.099 126.832 201.242 126.691 201.418 126.585C201.594 126.479 201.838 126.425 202.15 126.425H202.323ZM206.099 128.959C206.019 129.388 205.83 129.727 205.534 129.975C205.237 130.218 204.86 130.339 204.402 130.339C204.03 130.339 203.704 130.255 203.422 130.089C203.14 129.922 202.922 129.689 202.766 129.391C202.61 129.087 202.532 128.741 202.532 128.352C202.532 127.962 202.61 127.619 202.766 127.32C202.927 127.022 203.15 126.792 203.437 126.63C203.724 126.463 204.053 126.38 204.425 126.38C204.878 126.38 205.25 126.501 205.541 126.744C205.838 126.987 206.024 127.32 206.099 127.745H205.473C205.413 127.497 205.287 127.3 205.096 127.154C204.905 127.007 204.674 126.934 204.402 126.934C204.035 126.934 203.736 127.065 203.505 127.328C203.279 127.591 203.165 127.932 203.165 128.352C203.165 128.777 203.279 129.123 203.505 129.391C203.736 129.654 204.035 129.785 204.402 129.785C204.684 129.785 204.92 129.712 205.111 129.565C205.303 129.419 205.425 129.216 205.481 128.959H206.099ZM208.7 126.38C209.167 126.38 209.545 126.521 209.831 126.805C210.118 127.088 210.261 127.533 210.261 128.139V130.293H209.643V128.177C209.643 127.778 209.552 127.475 209.371 127.267C209.19 127.055 208.931 126.949 208.594 126.949C208.237 126.949 207.953 127.075 207.742 127.328C207.536 127.581 207.433 127.924 207.433 128.359V130.293H206.814V124.984H207.433V127.063C207.558 126.86 207.724 126.696 207.931 126.57C208.142 126.443 208.398 126.38 208.7 126.38Z" fill="white"/>
<path d="M88.6265 171.592C88.3128 171.592 88.062 171.853 88.062 172.179C88.062 172.504 88.3128 172.765 88.6265 172.765C88.9399 172.765 89.191 172.504 89.191 172.179C89.191 171.853 88.9399 171.592 88.6265 171.592Z" fill="white"/>
<path d="M177.568 140.777C177.494 140.703 177.375 140.703 177.301 140.777L176.101 141.983C176.028 142.058 176.028 142.177 176.101 142.252C176.175 142.326 176.294 142.326 176.368 142.252L177.435 141.179L178.501 142.252C178.575 142.326 178.694 142.326 178.768 142.252C178.842 142.177 178.842 142.058 178.768 141.983L177.568 140.777ZM88.2501 172.178C88.2501 171.951 88.4225 171.781 88.6261 171.781V171.402C88.2026 171.402 87.873 171.753 87.873 172.178H88.2501ZM88.6261 171.781C88.8298 171.781 89.0021 171.951 89.0021 172.178H89.3792C89.3792 171.753 89.0496 171.402 88.6261 171.402V171.781ZM89.0021 172.178C89.0021 172.405 88.8298 172.575 88.6261 172.575V172.954C89.0496 172.954 89.3792 172.603 89.3792 172.178H89.0021ZM88.6261 172.575C88.4225 172.575 88.2501 172.405 88.2501 172.178H87.873C87.873 172.603 88.2026 172.954 88.6261 172.954V172.575ZM88.8147 171.592V164.129H88.4376V171.592H88.8147ZM96.1681 156.734H169.893V156.355H96.1681V156.734ZM177.623 148.96V140.911H177.246V148.96H177.623ZM169.893 156.734C174.162 156.734 177.623 153.254 177.623 148.96H177.246C177.246 153.044 173.954 156.355 169.893 156.355V156.734ZM88.8147 164.129C88.8147 160.045 92.1068 156.734 96.1681 156.734V156.355C91.8986 156.355 88.4376 159.835 88.4376 164.129H88.8147Z" fill="#1B49F5"/>
<path d="M266.995 171.592C266.681 171.592 266.429 171.853 266.429 172.179C266.429 172.504 266.681 172.765 266.995 172.765C267.31 172.765 267.562 172.504 267.562 172.179C267.562 171.853 267.31 171.592 266.995 171.592Z" fill="white"/>
<path d="M177.568 140.777C177.495 140.703 177.375 140.703 177.301 140.777L176.102 141.983C176.028 142.058 176.028 142.177 176.102 142.252C176.175 142.326 176.295 142.326 176.369 142.252L177.435 141.179L178.501 142.252C178.575 142.326 178.694 142.326 178.768 142.252C178.842 142.177 178.842 142.058 178.768 141.983L177.568 140.777ZM266.617 172.178C266.617 171.952 266.79 171.781 266.995 171.781V171.402C266.571 171.402 266.24 171.753 266.24 172.178H266.617ZM266.995 171.781C267.201 171.781 267.374 171.952 267.374 172.178H267.751C267.751 171.753 267.419 171.402 266.995 171.402V171.781ZM267.374 172.178C267.374 172.404 267.201 172.575 266.995 172.575V172.954C267.419 172.954 267.751 172.604 267.751 172.178H267.374ZM266.995 172.575C266.79 172.575 266.617 172.404 266.617 172.178H266.24C266.24 172.604 266.571 172.954 266.995 172.954V172.575ZM267.184 171.592V164.129H266.807V171.592H267.184ZM259.453 156.355H184.977V156.734H259.453V156.355ZM177.624 148.96V140.911H177.246V148.96H177.624ZM184.977 156.355C180.916 156.355 177.624 153.044 177.624 148.96H177.246C177.246 153.254 180.707 156.734 184.977 156.734V156.355ZM267.184 164.129C267.184 159.835 263.723 156.355 259.453 156.355V156.734C263.514 156.734 266.807 160.045 266.807 164.129H267.184Z" fill="#1B49F5"/>
<path d="M259.451 91.9932C259.135 91.9932 258.882 92.248 258.882 92.5669C258.882 92.8858 259.135 93.1406 259.451 93.1406C259.767 93.1406 260.02 92.8858 260.02 92.5669C260.02 92.248 259.767 91.9932 259.451 91.9932Z" fill="white"/>
<path d="M226.325 113.853C226.252 113.927 226.252 114.047 226.325 114.122L227.525 115.328C227.599 115.402 227.718 115.402 227.792 115.328C227.866 115.254 227.866 115.134 227.792 115.06L226.725 113.987L227.792 112.915C227.866 112.841 227.866 112.721 227.792 112.646C227.718 112.573 227.599 112.573 227.525 112.646L226.325 113.853ZM259.072 92.5671C259.072 92.3524 259.24 92.1829 259.452 92.1829V91.8037C259.031 91.8037 258.694 92.1442 258.694 92.5671H259.072ZM259.452 92.1829C259.663 92.1829 259.832 92.3524 259.832 92.5671H260.209C260.209 92.1442 259.872 91.8037 259.452 91.8037V92.1829ZM259.832 92.5671C259.832 92.7817 259.663 92.9512 259.452 92.9512V93.3304C259.872 93.3304 260.209 92.9899 260.209 92.5671H259.832ZM259.452 92.9512C259.24 92.9512 259.072 92.7817 259.072 92.5671H258.694C258.694 92.9899 259.031 93.3304 259.452 93.3304V92.9512ZM258.883 92.3775H250.497V92.7567H258.883V92.3775ZM242.767 100.151V106.403H243.144V100.151H242.767ZM235.413 113.798H226.459V114.177H235.413V113.798ZM242.767 106.403C242.767 110.487 239.474 113.798 235.413 113.798V114.177C239.683 114.177 243.144 110.697 243.144 106.403H242.767ZM250.497 92.3775C246.228 92.3775 242.767 95.8578 242.767 100.151H243.144C243.144 96.0671 246.436 92.7567 250.497 92.7567V92.3775Z" fill="#1B49F5"/>
<path d="M177.623 54.4521C177.309 54.4521 177.058 54.7127 177.058 55.0384C177.058 55.3641 177.309 55.6247 177.623 55.6247C177.937 55.6247 178.189 55.3641 178.189 55.0384C178.189 54.7127 177.937 54.4521 177.623 54.4521Z" fill="white"/>
<path d="M177.49 86.4395C177.564 86.5135 177.684 86.5135 177.757 86.4395L178.957 85.2329C179.031 85.1586 179.031 85.0387 178.957 84.9644C178.883 84.8905 178.764 84.8905 178.69 84.9644L177.624 86.0372L176.557 84.9644C176.484 84.8905 176.364 84.8905 176.291 84.9644C176.217 85.0387 176.217 85.1586 176.291 85.2329L177.49 86.4395ZM177.247 55.0381C177.247 54.8117 177.419 54.6414 177.624 54.6414V54.2622C177.2 54.2622 176.87 54.613 176.87 55.0381H177.247ZM177.624 54.6414C177.829 54.6414 178.001 54.8117 178.001 55.0381H178.378C178.378 54.613 178.048 54.2622 177.624 54.2622V54.6414ZM178.001 55.0381C178.001 55.2645 177.829 55.4347 177.624 55.4347V55.8139C178.048 55.8139 178.378 55.4632 178.378 55.0381H178.001ZM177.624 55.4347C177.419 55.4347 177.247 55.2645 177.247 55.0381H176.87C176.87 55.4632 177.2 55.8139 177.624 55.8139V55.4347ZM177.435 55.6243V86.3053H177.812V55.6243H177.435Z" fill="#1B49F5"/>
<g filter="url(#filter4_d_2324_2840)">
<path d="M93.7188 65.2598H4.7229C2.32782 65.2598 0.38623 67.2122 0.38623 69.6207V115.126C0.38623 117.534 2.32782 119.487 4.7229 119.487H93.7188C96.1139 119.487 98.0555 117.534 98.0555 115.126V69.6207C98.0555 67.2122 96.1139 65.2598 93.7188 65.2598Z" stroke="#1B49F5" stroke-width="0.5"/>
<path d="M58.2713 83.2719C58.2713 78.2456 54.2193 74.1709 49.2208 74.1709C44.2224 74.1709 40.1704 78.2456 40.1704 83.2719C40.1704 88.2982 44.2224 92.3729 49.2208 92.3729C54.2193 92.3729 58.2713 88.2982 58.2713 83.2719Z" fill="#1B49F5"/>
<mask id="mask5_2324_2840" style="mask-type:luminance" maskUnits="userSpaceOnUse" x="44" y="78" width="10" height="10">
<path d="M53.7457 78.7212H44.6953V87.8222H53.7457V78.7212Z" fill="white"/>
</mask>
<g mask="url(#mask5_2324_2840)">
<path d="M48.0898 84.4094H46.11C46.0349 84.4094 45.9629 84.3794 45.9101 84.326C45.8569 84.2729 45.8271 84.2004 45.8271 84.125V82.4185C45.8271 82.3431 45.8569 82.2707 45.9101 82.2176C45.9629 82.1641 46.0349 82.1341 46.11 82.1341H48.0898V80.1433C48.0898 80.0678 48.1195 79.9954 48.1727 79.9423C48.2255 79.8888 48.2975 79.8589 48.3726 79.8589H50.0695C50.1446 79.8589 50.2166 79.8888 50.2694 79.9423C50.3226 79.9954 50.3524 80.0678 50.3524 80.1433V82.1341H52.3321C52.4072 82.1341 52.4792 82.1641 52.532 82.2176C52.5852 82.2707 52.615 82.3431 52.615 82.4185V84.125C52.615 84.2004 52.5852 84.2729 52.532 84.326C52.4792 84.3794 52.4072 84.4094 52.3321 84.4094H50.3524V86.4002C50.3524 86.4757 50.3226 86.5481 50.2694 86.6012C50.2166 86.6547 50.1446 86.6846 50.0695 86.6846H48.3726C48.2975 86.6846 48.2255 86.6547 48.1727 86.6012C48.1195 86.5481 48.0898 86.4757 48.0898 86.4002V84.4094Z" stroke="white" stroke-width="0.56723" stroke-linecap="round" stroke-linejoin="round"/>
</g>
<path d="M18.3237 103.749H19.1534L21.0238 108.155L22.8716 103.749H23.6861V109.058H23.045V104.871L21.2953 109.058H20.7146L18.9648 104.871V109.058H18.3237V103.749ZM24.4833 107.124C24.4833 106.729 24.5587 106.383 24.7096 106.085C24.8653 105.786 25.0814 105.557 25.3582 105.395C25.6346 105.228 25.9514 105.144 26.3085 105.144C26.6603 105.144 26.9722 105.218 27.2437 105.364C27.5152 105.511 27.7286 105.723 27.8848 106.001C28.0405 106.279 28.1235 106.605 28.1336 106.98C28.1336 107.035 28.1284 107.124 28.1186 107.245H25.1319V107.298C25.1417 107.677 25.2575 107.981 25.4789 108.208C25.6998 108.436 25.9891 108.55 26.3462 108.55C26.6226 108.55 26.8564 108.481 27.0476 108.345C27.2437 108.203 27.3742 108.009 27.4398 107.761H28.0658C27.9903 108.155 27.8018 108.479 27.5001 108.732C27.1984 108.979 26.8289 109.103 26.3914 109.103C26.0091 109.103 25.6749 109.023 25.3883 108.861C25.1017 108.694 24.8777 108.461 24.7171 108.163C24.561 107.86 24.4833 107.513 24.4833 107.124ZM27.4926 106.729C27.4624 106.401 27.3391 106.145 27.123 105.963C26.9118 105.781 26.6426 105.69 26.316 105.69C26.0241 105.69 25.7677 105.786 25.5467 105.979C25.3254 106.171 25.1998 106.421 25.1696 106.729H27.4926ZM32.4895 103.749V109.058H31.9541L31.8711 108.436C31.5494 108.881 31.1093 109.103 30.5512 109.103C30.1941 109.103 29.8751 109.025 29.5934 108.868C29.317 108.712 29.0983 108.484 28.9372 108.186C28.7815 107.887 28.7034 107.533 28.7034 107.124C28.7034 106.734 28.7815 106.391 28.9372 106.092C29.0983 105.794 29.3193 105.562 29.6009 105.395C29.8826 105.228 30.1994 105.144 30.5512 105.144C30.8631 105.144 31.1293 105.202 31.3507 105.319C31.5721 105.43 31.7455 105.584 31.8711 105.781V103.749H32.4895ZM30.6116 108.55C30.8578 108.55 31.0765 108.492 31.2677 108.375C31.4638 108.254 31.6147 108.087 31.7203 107.875C31.8258 107.657 31.8786 107.412 31.8786 107.139C31.8786 106.861 31.8258 106.613 31.7203 106.396C31.6147 106.173 31.4638 106.001 31.2677 105.88C31.0765 105.759 30.8578 105.698 30.6116 105.698C30.2296 105.698 29.9204 105.832 29.6839 106.1C29.4527 106.363 29.337 106.704 29.337 107.124C29.337 107.544 29.4527 107.887 29.6839 108.155C29.9204 108.418 30.2296 108.55 30.6116 108.55ZM33.6412 103.696C33.757 103.696 33.8524 103.734 33.9278 103.81C34.0032 103.885 34.0409 103.981 34.0409 104.098C34.0409 104.214 34.0032 104.31 33.9278 104.386C33.8524 104.462 33.757 104.5 33.6412 104.5C33.5254 104.5 33.43 104.462 33.3546 104.386C33.2792 104.31 33.2415 104.214 33.2415 104.098C33.2415 103.981 33.2792 103.885 33.3546 103.81C33.43 103.734 33.5254 103.696 33.6412 103.696ZM33.332 105.19H33.9504V109.058H33.332V105.19ZM38.2294 107.723C38.1487 108.153 37.9602 108.492 37.6638 108.739C37.367 108.982 36.9899 109.103 36.5325 109.103C36.1603 109.103 35.8333 109.02 35.552 108.853C35.2703 108.686 35.0516 108.454 34.8958 108.155C34.7397 107.852 34.662 107.506 34.662 107.116C34.662 106.727 34.7397 106.383 34.8958 106.085C35.0565 105.786 35.2805 105.557 35.5671 105.395C35.8537 105.228 36.1829 105.144 36.5551 105.144C37.0076 105.144 37.3794 105.266 37.6713 105.508C37.9677 105.751 38.154 106.085 38.2294 106.51H37.6034C37.5431 106.262 37.4171 106.065 37.2263 105.918C37.0351 105.771 36.804 105.698 36.5325 105.698C36.1652 105.698 35.8661 105.83 35.6349 106.092C35.4087 106.355 35.2956 106.696 35.2956 107.116C35.2956 107.541 35.4087 107.887 35.6349 108.155C35.8661 108.418 36.1652 108.55 36.5325 108.55C36.8138 108.55 37.0502 108.476 37.2414 108.33C37.4322 108.183 37.5555 107.981 37.611 107.723H38.2294ZM42.5419 108.489V109.058H42.2025C41.9563 109.058 41.7802 109.007 41.6746 108.906C41.569 108.805 41.5136 108.656 41.5087 108.459C41.2119 108.888 40.782 109.103 40.219 109.103C39.7917 109.103 39.4471 109.002 39.1857 108.8C38.9293 108.598 38.8011 108.322 38.8011 107.973C38.8011 107.584 38.9319 107.286 39.1933 107.078C39.4599 106.871 39.8445 106.767 40.3472 106.767H41.4785V106.502C41.4785 106.249 41.3929 106.052 41.2221 105.91C41.0561 105.769 40.8224 105.698 40.5207 105.698C40.2541 105.698 40.0331 105.759 39.857 105.88C39.6861 105.996 39.5806 106.153 39.5402 106.35H38.9218C38.967 105.971 39.1329 105.675 39.4195 105.463C39.711 105.251 40.0881 105.144 40.5508 105.144C41.0437 105.144 41.4231 105.266 41.6897 105.508C41.9612 105.746 42.097 106.09 42.097 106.54V108.208C42.097 108.395 42.1826 108.489 42.3534 108.489H42.5419ZM41.4785 107.291H40.2869C39.7137 107.291 39.4271 107.506 39.4271 107.935C39.4271 108.128 39.5025 108.282 39.6533 108.398C39.8042 108.514 40.0078 108.572 40.2642 108.572C40.6413 108.572 40.9381 108.474 41.1542 108.277C41.3703 108.075 41.4785 107.809 41.4785 107.48V107.291ZM43.0175 103.749H43.6359V109.058H43.0175V103.749ZM46.7662 103.696C46.8816 103.696 46.9774 103.734 47.0528 103.81C47.1282 103.885 47.166 103.981 47.166 104.098C47.166 104.214 47.1282 104.31 47.0528 104.386C46.9774 104.462 46.8816 104.5 46.7662 104.5C46.6505 104.5 46.555 104.462 46.4796 104.386C46.4042 104.31 46.3665 104.214 46.3665 104.098C46.3665 103.981 46.4042 103.885 46.4796 103.81C46.555 103.734 46.6505 103.696 46.7662 103.696ZM46.457 105.19H47.0754V109.058H46.457V105.19ZM49.8079 105.144C50.2755 105.144 50.6504 105.286 50.9317 105.569C51.2183 105.852 51.3616 106.297 51.3616 106.904V109.058H50.7431V106.942C50.7431 106.543 50.6526 106.239 50.4716 106.032C50.2959 105.819 50.0395 105.713 49.7023 105.713C49.3403 105.713 49.0564 105.839 48.8501 106.092C48.6442 106.345 48.5409 106.689 48.5409 107.124V109.058H47.9224V105.19H48.4579L48.5409 105.713C48.8327 105.334 49.2551 105.144 49.8079 105.144ZM52.5046 103.696C52.6203 103.696 52.7158 103.734 52.7912 103.81C52.8666 103.885 52.9043 103.981 52.9043 104.098C52.9043 104.214 52.8666 104.31 52.7912 104.386C52.7158 104.462 52.6203 104.5 52.5046 104.5C52.3892 104.5 52.2934 104.462 52.218 104.386C52.1426 104.31 52.1048 104.214 52.1048 104.098C52.1048 103.981 52.1426 103.885 52.218 103.81C52.2934 103.734 52.3892 103.696 52.5046 103.696ZM51.773 110.006C51.9238 110.006 52.0321 109.973 52.0973 109.907C52.1629 109.842 52.1954 109.733 52.1954 109.581V105.19H52.8138V109.566C52.8138 109.91 52.7335 110.162 52.5725 110.324C52.4167 110.491 52.1629 110.575 51.8107 110.575H51.2903V110.006H51.773ZM56.971 105.19V109.058H56.4355L56.3525 108.542C56.061 108.916 55.6511 109.103 55.1232 109.103C54.6657 109.103 54.2988 108.962 54.022 108.679C53.7456 108.395 53.6072 107.951 53.6072 107.344V105.19H54.2257V107.306C54.2257 107.705 54.3113 108.011 54.4821 108.224C54.6582 108.431 54.9071 108.534 55.2288 108.534C55.581 108.534 55.8547 108.408 56.0508 108.155C56.2522 107.902 56.3525 107.559 56.3525 107.124V105.19H56.971ZM59.7675 105.19V105.797H59.4583C59.0914 105.797 58.8274 105.921 58.6664 106.168C58.5107 106.416 58.4326 106.722 58.4326 107.086V109.058H57.8142V105.19H58.3496L58.4326 105.774C58.5431 105.597 58.6864 105.455 58.8625 105.349C59.0386 105.243 59.2822 105.19 59.5941 105.19H59.7675ZM60.6413 105.19L61.8254 108.345L62.9718 105.19H63.6279L61.8556 109.71C61.765 109.943 61.6847 110.117 61.6142 110.233C61.5441 110.35 61.4558 110.435 61.3502 110.491C61.2447 110.547 61.104 110.575 60.9279 110.575H60.1888V110.006H60.7393C60.86 110.006 60.9505 109.993 61.0108 109.968C61.0712 109.942 61.1191 109.9 61.1542 109.839C61.1945 109.783 61.2424 109.687 61.2975 109.551L61.4935 109.088L59.9851 105.19H60.6413ZM69.7136 103.749V109.058H69.1781L69.0951 108.436C68.7735 108.881 68.3334 109.103 67.7753 109.103C67.4182 109.103 67.0992 109.025 66.8175 108.868C66.541 108.712 66.3223 108.484 66.1613 108.186C66.0056 107.887 65.9275 107.533 65.9275 107.124C65.9275 106.734 66.0056 106.391 66.1613 106.092C66.3223 105.794 66.5433 105.562 66.825 105.395C67.1067 105.228 67.4235 105.144 67.7753 105.144C68.0872 105.144 68.3534 105.202 68.5748 105.319C68.7961 105.43 68.9696 105.584 69.0951 105.781V103.749H69.7136ZM67.8356 108.55C68.0819 108.55 68.3006 108.492 68.4918 108.375C68.6879 108.254 68.8387 108.087 68.9443 107.875C69.0499 107.657 69.1027 107.412 69.1027 107.139C69.1027 106.861 69.0499 106.613 68.9443 106.396C68.8387 106.173 68.6879 106.001 68.4918 105.88C68.3006 105.759 68.0819 105.698 67.8356 105.698C67.4536 105.698 67.1444 105.832 66.908 106.1C66.6768 106.363 66.561 106.704 66.561 107.124C66.561 107.544 66.6768 107.887 66.908 108.155C67.1444 108.418 67.4536 108.55 67.8356 108.55ZM74.1536 108.489V109.058H73.8142C73.5679 109.058 73.3918 109.007 73.2863 108.906C73.1807 108.805 73.1252 108.656 73.1203 108.459C72.8236 108.888 72.3937 109.103 71.8306 109.103C71.4034 109.103 71.0587 109.002 70.7974 108.8C70.541 108.598 70.4127 108.322 70.4127 107.973C70.4127 107.584 70.5436 107.286 70.8049 107.078C71.0715 106.871 71.4562 106.767 71.9589 106.767H73.0902V106.502C73.0902 106.249 73.0046 106.052 72.8337 105.91C72.6678 105.769 72.434 105.698 72.1323 105.698C71.8657 105.698 71.6447 105.759 71.4686 105.88C71.2978 105.996 71.1922 106.153 71.1519 106.35H70.5334C70.5787 105.971 70.7446 105.675 71.0312 105.463C71.3227 105.251 71.6998 105.144 72.1625 105.144C72.6554 105.144 73.0347 105.266 73.3013 105.508C73.5729 105.746 73.7086 106.09 73.7086 106.54V108.208C73.7086 108.395 73.7942 108.489 73.965 108.489H74.1536ZM73.0902 107.291H71.8985C71.3253 107.291 71.0387 107.506 71.0387 107.935C71.0387 108.128 71.1142 108.282 71.265 108.398C71.4158 108.514 71.6195 108.572 71.8759 108.572C72.253 108.572 72.5498 108.474 72.7659 108.277C72.9819 108.075 73.0902 107.809 73.0902 107.48V107.291ZM74.8855 105.759H74.1917V105.19H74.8855V104.105H75.504V105.19H76.4769V105.759H75.504V108.042C75.504 108.203 75.5342 108.319 75.5945 108.39C75.6597 108.456 75.7702 108.489 75.9263 108.489H76.5976V109.058H75.8886C75.5266 109.058 75.2675 108.977 75.1118 108.815C74.961 108.653 74.8855 108.398 74.8855 108.049V105.759ZM80.576 108.489V109.058H80.2366C79.9904 109.058 79.8143 109.007 79.7087 108.906C79.6031 108.805 79.548 108.656 79.5427 108.459C79.2463 108.888 78.8164 109.103 78.2531 109.103C77.8258 109.103 77.4815 109.002 77.2198 108.8C76.9634 108.598 76.8352 108.322 76.8352 107.973C76.8352 107.584 76.966 107.286 77.2273 107.078C77.4939 106.871 77.8786 106.767 78.3813 106.767H79.5126V106.502C79.5126 106.249 79.4273 106.052 79.2561 105.91C79.0902 105.769 78.8564 105.698 78.5547 105.698C78.2885 105.698 78.0671 105.759 77.891 105.88C77.7202 105.996 77.6146 106.153 77.5743 106.35H76.9558C77.0011 105.971 77.167 105.675 77.4536 105.463C77.7455 105.251 78.1226 105.144 78.5849 105.144C79.0778 105.144 79.4575 105.266 79.7238 105.508C79.9953 105.746 80.131 106.09 80.131 106.54V108.208C80.131 108.395 80.2166 108.489 80.3874 108.489H80.576ZM79.5126 107.291H78.3209C77.7477 107.291 77.4611 107.506 77.4611 107.935C77.4611 108.128 77.5366 108.282 77.6874 108.398C77.8382 108.514 78.0419 108.572 78.2983 108.572C78.6754 108.572 78.9722 108.474 79.1883 108.277C79.4047 108.075 79.5126 107.809 79.5126 107.48V107.291Z" fill="#0F172A"/>
</g>
<path d="M98.0583 92.3726C97.7423 92.3726 97.4893 92.6232 97.4893 92.9364C97.4893 93.2497 97.7423 93.5003 98.0583 93.5003C98.3747 93.5003 98.6274 93.2497 98.6274 92.9364C98.6274 92.6232 98.3747 92.3726 98.0583 92.3726Z" fill="white"/>
<path d="M128.546 114.122C128.619 114.048 128.619 113.928 128.546 113.854L127.346 112.647C127.272 112.573 127.153 112.573 127.079 112.647C127.005 112.721 127.005 112.841 127.079 112.916L128.146 113.988L127.079 115.06C127.005 115.135 127.005 115.255 127.079 115.329C127.153 115.403 127.272 115.403 127.346 115.329L128.546 114.122ZM97.6784 92.9371C97.6784 92.7312 97.8443 92.5628 98.0589 92.5628V92.1836C97.6414 92.1836 97.3013 92.5165 97.3013 92.9371H97.6784ZM98.0589 92.5628C98.2738 92.5628 98.4394 92.7312 98.4394 92.9371H98.8165C98.8165 92.5165 98.4767 92.1836 98.0589 92.1836V92.5628ZM98.4394 92.9371C98.4394 93.143 98.2738 93.3114 98.0589 93.3114V93.6906C98.4767 93.6906 98.8165 93.3576 98.8165 92.9371H98.4394ZM98.0589 93.3114C97.8443 93.3114 97.6784 93.143 97.6784 92.9371H97.3013C97.3013 93.3576 97.6414 93.6906 98.0589 93.6906V93.3114ZM98.6279 93.1267H105.694V92.7475H98.6279V93.1267ZM113.047 100.521V106.404H113.424V100.521H113.047ZM120.778 114.178H128.412V113.798H120.778V114.178ZM113.047 106.404C113.047 110.697 116.508 114.178 120.778 114.178V113.798C116.716 113.798 113.424 110.488 113.424 106.404H113.047ZM105.694 93.1267C109.755 93.1267 113.047 96.4372 113.047 100.521H113.424C113.424 96.2278 109.963 92.7475 105.694 92.7475V93.1267Z" fill="#1B49F5"/>
</g>
<defs>
<filter id="filter0_d_2324_2840" x="124.569" y="-2.48128" width="107.245" height="63.8022" filterUnits="userSpaceOnUse" color-interpolation-filters="sRGB">
<feFlood flood-opacity="0" result="BackgroundImageFix"/>
<feColorMatrix in="SourceAlpha" type="matrix" values="0 0 0 0 0 0 0 0 0 0 0 0 0 0 0 0 0 0 127 0" result="hardAlpha"/>
<feOffset dx="0.756307" dy="1.51261"/>
<feGaussianBlur stdDeviation="2.26892"/>
<feComposite in2="hardAlpha" operator="out"/>
<feColorMatrix type="matrix" values="0 0 0 0 0.754444 0 0 0 0 0.7566 0 0 0 0 0.808333 0 0 0 0.1 0"/>
<feBlend mode="normal" in2="BackgroundImageFix" result="effect1_dropShadow_2324_2840"/>
<feBlend mode="normal" in="SourceGraphic" in2="effect1_dropShadow_2324_2840" result="shape"/>
</filter>
<filter id="filter1_d_2324_2840" x="255.423" y="61.9845" width="107.245" height="63.8022" filterUnits="userSpaceOnUse" color-interpolation-filters="sRGB">
<feFlood flood-opacity="0" result="BackgroundImageFix"/>
<feColorMatrix in="SourceAlpha" type="matrix" values="0 0 0 0 0 0 0 0 0 0 0 0 0 0 0 0 0 0 127 0" result="hardAlpha"/>
<feOffset dx="0.756307" dy="1.51261"/>
<feGaussianBlur stdDeviation="2.26892"/>
<feComposite in2="hardAlpha" operator="out"/>
<feColorMatrix type="matrix" values="0 0 0 0 0.754444 0 0 0 0 0.7566 0 0 0 0 0.808333 0 0 0 0.1 0"/>
<feBlend mode="normal" in2="BackgroundImageFix" result="effect1_dropShadow_2324_2840"/>
<feBlend mode="normal" in="SourceGraphic" in2="effect1_dropShadow_2324_2840" result="shape"/>
</filter>
<filter id="filter2_d_2324_2840" x="35.573" y="168.92" width="107.245" height="63.8022" filterUnits="userSpaceOnUse" color-interpolation-filters="sRGB">
<feFlood flood-opacity="0" result="BackgroundImageFix"/>
<feColorMatrix in="SourceAlpha" type="matrix" values="0 0 0 0 0 0 0 0 0 0 0 0 0 0 0 0 0 0 127 0" result="hardAlpha"/>
<feOffset dx="0.756307" dy="1.51261"/>
<feGaussianBlur stdDeviation="2.26892"/>
<feComposite in2="hardAlpha" operator="out"/>
<feColorMatrix type="matrix" values="0 0 0 0 0.754444 0 0 0 0 0.7566 0 0 0 0 0.808333 0 0 0 0.1 0"/>
<feBlend mode="normal" in2="BackgroundImageFix" result="effect1_dropShadow_2324_2840"/>
<feBlend mode="normal" in="SourceGraphic" in2="effect1_dropShadow_2324_2840" result="shape"/>
</filter>
<filter id="filter3_d_2324_2840" x="213.943" y="168.92" width="107.245" height="63.8022" filterUnits="userSpaceOnUse" color-interpolation-filters="sRGB">
<feFlood flood-opacity="0" result="BackgroundImageFix"/>
<feColorMatrix in="SourceAlpha" type="matrix" values="0 0 0 0 0 0 0 0 0 0 0 0 0 0 0 0 0 0 127 0" result="hardAlpha"/>
<feOffset dx="0.756307" dy="1.51261"/>
<feGaussianBlur stdDeviation="2.26892"/>
<feComposite in2="hardAlpha" operator="out"/>
<feColorMatrix type="matrix" values="0 0 0 0 0.754444 0 0 0 0 0.7566 0 0 0 0 0.808333 0 0 0 0.1 0"/>
<feBlend mode="normal" in2="BackgroundImageFix" result="effect1_dropShadow_2324_2840"/>
<feBlend mode="normal" in="SourceGraphic" in2="effect1_dropShadow_2324_2840" result="shape"/>
</filter>
<filter id="filter4_d_2324_2840" x="-3.6453" y="61.9845" width="107.245" height="63.8022" filterUnits="userSpaceOnUse" color-interpolation-filters="sRGB">
<feFlood flood-opacity="0" result="BackgroundImageFix"/>
<feColorMatrix in="SourceAlpha" type="matrix" values="0 0 0 0 0 0 0 0 0 0 0 0 0 0 0 0 0 0 127 0" result="hardAlpha"/>
<feOffset dx="0.756307" dy="1.51261"/>
<feGaussianBlur stdDeviation="2.26892"/>
<feComposite in2="hardAlpha" operator="out"/>
<feColorMatrix type="matrix" values="0 0 0 0 0.754444 0 0 0 0 0.7566 0 0 0 0 0.808333 0 0 0 0.1 0"/>
<feBlend mode="normal" in2="BackgroundImageFix" result="effect1_dropShadow_2324_2840"/>
<feBlend mode="normal" in="SourceGraphic" in2="effect1_dropShadow_2324_2840" result="shape"/>
</filter>
<clipPath id="clip0_2324_2840">
<rect width="358" height="227.365" fill="white"/>
</clipPath>
</defs>
</svg>
