<svg width="118" height="16" viewBox="0 0 118 16" fill="none" xmlns="http://www.w3.org/2000/svg">
    <path
        d="M0.463867 8.75662C0.463867 7.37116 0.773241 6.13367 1.39199 5.04414C2.02419 3.94115 2.87833 3.08701 3.95441 2.48172C5.04394 1.86297 6.26126 1.55359 7.60636 1.55359C9.18014 1.55359 10.5589 1.95713 11.7426 2.76419C12.9262 3.57125 13.7535 4.68768 14.2243 6.11349H10.9758C10.653 5.44094 10.1957 4.93653 9.60384 4.60025C9.02545 4.26398 8.3529 4.09584 7.58619 4.09584C6.76568 4.09584 6.03259 4.29088 5.38694 4.68096C4.75475 5.05759 4.25706 5.59563 3.89388 6.29508C3.54415 6.99454 3.36929 7.81505 3.36929 8.75662C3.36929 9.68474 3.54415 10.5053 3.89388 11.2182C4.25706 11.9176 4.75475 12.4624 5.38694 12.8525C6.03259 13.2291 6.76568 13.4174 7.58619 13.4174C8.3529 13.4174 9.02545 13.2493 9.60384 12.913C10.1957 12.5633 10.653 12.0521 10.9758 11.3796H14.2243C13.7535 12.8188 12.9262 13.942 11.7426 14.7491C10.5723 15.5427 9.19359 15.9395 7.60636 15.9395C6.26126 15.9395 5.04394 15.6368 3.95441 15.0315C2.87833 14.4128 2.02419 13.5586 1.39199 12.4691C0.773241 11.3796 0.463867 10.1421 0.463867 8.75662Z"
        fill="#1B49F5" />
    <path d="M19.6634 0.887769V15.8184H16.8387V0.887769H19.6634Z" fill="#1B49F5" />
    <path
        d="M21.9297 10.1892C21.9297 9.05927 22.1516 8.05717 22.5955 7.18285C23.0528 6.30853 23.6648 5.63598 24.4315 5.1652C25.2117 4.69441 26.0793 4.45902 27.0343 4.45902C27.8683 4.45902 28.5946 4.62715 29.2134 4.96343C29.8456 5.29971 30.35 5.72341 30.7266 6.23455V4.64061H33.5715V15.8184H30.7266V14.1841C30.3635 14.7087 29.859 15.1459 29.2134 15.4956C28.5812 15.8319 27.8481 16 27.0141 16C26.0726 16 25.2117 15.7579 24.4315 15.2736C23.6648 14.7894 23.0528 14.1101 22.5955 13.2358C22.1516 12.348 21.9297 11.3325 21.9297 10.1892ZM30.7266 10.2295C30.7266 9.5435 30.5921 8.95839 30.3231 8.47415C30.0541 7.97646 29.6909 7.59983 29.2336 7.34426C28.7762 7.07524 28.2853 6.94073 27.7607 6.94073C27.2361 6.94073 26.7519 7.06852 26.308 7.32409C25.8641 7.57966 25.5009 7.95628 25.2184 8.45397C24.9494 8.93821 24.8149 9.5166 24.8149 10.1892C24.8149 10.8617 24.9494 11.4536 25.2184 11.9647C25.5009 12.4624 25.8641 12.8457 26.308 13.1148C26.7653 13.3838 27.2495 13.5183 27.7607 13.5183C28.2853 13.5183 28.7762 13.3905 29.2336 13.1349C29.6909 12.8659 30.0541 12.4893 30.3231 12.005C30.5921 11.5074 30.7266 10.9155 30.7266 10.2295Z"
        fill="#1B49F5" />
    <path
        d="M37.9647 3.30895C37.467 3.30895 37.05 3.15427 36.7137 2.84489C36.3909 2.52207 36.2295 2.12526 36.2295 1.65448C36.2295 1.18369 36.3909 0.793611 36.7137 0.484237C37.05 0.161413 37.467 0 37.9647 0C38.4623 0 38.8726 0.161413 39.1954 0.484237C39.5317 0.793611 39.6998 1.18369 39.6998 1.65448C39.6998 2.12526 39.5317 2.52207 39.1954 2.84489C38.8726 3.15427 38.4623 3.30895 37.9647 3.30895ZM39.3568 4.64061V15.8184H36.5321V4.64061H39.3568Z"
        fill="#1B49F5" />
    <path
        d="M56.2309 4.47919C57.6029 4.47919 58.7059 4.9029 59.5398 5.75032C60.3873 6.58428 60.811 7.75452 60.811 9.26103V15.8184H57.9862V9.64439C57.9862 8.77007 57.7643 8.10425 57.3204 7.64691C56.8765 7.17612 56.2712 6.94073 55.5045 6.94073C54.7378 6.94073 54.1258 7.17612 53.6685 7.64691C53.2246 8.10425 53.0026 8.77007 53.0026 9.64439V15.8184H50.1779V9.64439C50.1779 8.77007 49.956 8.10425 49.5121 7.64691C49.0682 7.17612 48.4629 6.94073 47.6962 6.94073C46.916 6.94073 46.2973 7.17612 45.84 7.64691C45.3961 8.10425 45.1741 8.77007 45.1741 9.64439V15.8184H42.3494V4.64061H45.1741V5.99243C45.5373 5.52165 46.0014 5.15174 46.5663 4.88272C47.1447 4.6137 47.7769 4.47919 48.4629 4.47919C49.3372 4.47919 50.1174 4.66751 50.8034 5.04414C51.4894 5.40731 52.0207 5.9319 52.3974 6.61791C52.7605 5.97226 53.2851 5.45439 53.9711 5.06431C54.6706 4.67423 55.4238 4.47919 56.2309 4.47919Z"
        fill="#1B49F5" />
    <path
        d="M63.0072 8.75662C63.0072 7.37116 63.3166 6.13367 63.9353 5.04414C64.5675 3.94115 65.4217 3.08701 66.4978 2.48172C67.5873 1.86297 68.8046 1.55359 70.1497 1.55359C71.7235 1.55359 73.1022 1.95713 74.2859 2.76419C75.4696 3.57125 76.2968 4.68768 76.7676 6.11349H73.5192C73.1964 5.44094 72.739 4.93653 72.1472 4.60025C71.5688 4.26398 70.8962 4.09584 70.1295 4.09584C69.309 4.09584 68.5759 4.29088 67.9303 4.68096C67.2981 5.05759 66.8004 5.59563 66.4372 6.29508C66.0875 6.99454 65.9126 7.81505 65.9126 8.75662C65.9126 9.68474 66.0875 10.5053 66.4372 11.2182C66.8004 11.9176 67.2981 12.4624 67.9303 12.8525C68.5759 13.2291 69.309 13.4174 70.1295 13.4174C70.8962 13.4174 71.5688 13.2493 72.1472 12.913C72.739 12.5633 73.1964 12.0521 73.5192 11.3796H76.7676C76.2968 12.8188 75.4696 13.942 74.2859 14.7491C73.1157 15.5427 71.7369 15.9395 70.1497 15.9395C68.8046 15.9395 67.5873 15.6368 66.4978 15.0315C65.4217 14.4128 64.5675 13.5586 63.9353 12.4691C63.3166 11.3796 63.0072 10.1421 63.0072 8.75662Z"
        fill="#1B49F5" />
    <path d="M82.2068 0.887769V15.8184H79.382V0.887769H82.2068Z" fill="#1B49F5" />
    <path
        d="M84.473 10.1892C84.473 9.05927 84.695 8.05717 85.1388 7.18285C85.5962 6.30853 86.2082 5.63598 86.9749 5.1652C87.7551 4.69441 88.6227 4.45902 89.5777 4.45902C90.4116 4.45902 91.138 4.62715 91.7567 4.96343C92.3889 5.29971 92.8934 5.72341 93.27 6.23455V4.64061H96.1149V15.8184H93.27V14.1841C92.9068 14.7087 92.4024 15.1459 91.7567 15.4956C91.1245 15.8319 90.3915 16 89.5575 16C88.6159 16 87.7551 15.7579 86.9749 15.2736C86.2082 14.7894 85.5962 14.1101 85.1388 13.2358C84.695 12.348 84.473 11.3325 84.473 10.1892ZM93.27 10.2295C93.27 9.5435 93.1355 8.95839 92.8665 8.47415C92.5974 7.97646 92.2343 7.59983 91.7769 7.34426C91.3196 7.07524 90.8286 6.94073 90.304 6.94073C89.7794 6.94073 89.2952 7.06852 88.8513 7.32409C88.4074 7.57966 88.0443 7.95628 87.7618 8.45397C87.4928 8.93821 87.3583 9.5166 87.3583 10.1892C87.3583 10.8617 87.4928 11.4536 87.7618 11.9647C88.0443 12.4624 88.4074 12.8457 88.8513 13.1148C89.3087 13.3838 89.7929 13.5183 90.304 13.5183C90.8286 13.5183 91.3196 13.3905 91.7769 13.1349C92.2343 12.8659 92.5974 12.4893 92.8665 12.005C93.1355 11.5074 93.27 10.9155 93.27 10.2295Z"
        fill="#1B49F5" />
    <path
        d="M112.957 4.47919C114.329 4.47919 115.432 4.9029 116.266 5.75032C117.113 6.58428 117.537 7.75452 117.537 9.26103V15.8184H114.712V9.64439C114.712 8.77007 114.49 8.10425 114.046 7.64691C113.603 7.17612 112.997 6.94073 112.231 6.94073C111.464 6.94073 110.852 7.17612 110.395 7.64691C109.951 8.10425 109.729 8.77007 109.729 9.64439V15.8184H106.904V9.64439C106.904 8.77007 106.682 8.10425 106.238 7.64691C105.794 7.17612 105.189 6.94073 104.422 6.94073C103.642 6.94073 103.023 7.17612 102.566 7.64691C102.122 8.10425 101.9 8.77007 101.9 9.64439V15.8184H99.0755V4.64061H101.9V5.99243C102.263 5.52165 102.727 5.15174 103.292 4.88272C103.871 4.6137 104.503 4.47919 105.189 4.47919C106.063 4.47919 106.843 4.66751 107.529 5.04414C108.215 5.40731 108.747 5.9319 109.123 6.61791C109.487 5.97226 110.011 5.45439 110.697 5.06431C111.397 4.67423 112.15 4.47919 112.957 4.47919Z"
        fill="#1B49F5" />
</svg>
