<svg width="32" height="32" viewBox="0 0 32 32" fill="none" xmlns="http://www.w3.org/2000/svg">
  <rect width="32" height="32" rx="6" fill="#4075FF" />
  <path d="M24 18.6667L18.6667 23.9964L8.89067 24C8.65555 24.001 8.42967 23.9086 8.26267 23.7429C8.09563 23.5773 8.00118 23.3523 8 23.1173V8.88267C8 8.39556 8.39556 8 8.88267 8H23.1173C23.6044 8 24 8.40533 24 8.89067V18.6667ZM22.2222 9.77778H9.77778V22.2222H16.8889V17.7778C16.8889 17.5601 16.9688 17.3499 17.1135 17.1872C17.2582 17.0245 17.4576 16.9206 17.6738 16.8951L17.7778 16.8889L22.2222 16.888V9.77778ZM21.4853 18.6658L18.6667 18.6667V21.4836L21.4853 18.6658Z" fill="white" />
</svg> 