<svg width="95" height="15" viewBox="0 0 95 15" fill="none" xmlns="http://www.w3.org/2000/svg">
<path d="M15.2674 5.21581L10.5961 4.54109L8.51033 0.336377C8.44966 0.233951 8.363 0.149159 8.25901 0.0904874C8.15547 0.0312415 8.0381 4.00238e-05 7.91863 0C7.79929 0.000497463 7.68211 0.0316372 7.57844 0.0903999C7.47477 0.149163 7.38814 0.233555 7.32694 0.335393L5.23621 4.54109L0.565956 5.21581C0.444223 5.23357 0.329863 5.28465 0.235674 5.36334C0.141484 5.44203 0.0711832 5.54522 0.0326375 5.66136C-0.00552606 5.77775 -0.0103228 5.9024 0.0187851 6.02135C0.047913 6.14041 0.110346 6.24884 0.198867 6.33412L3.57985 9.60838L2.78235 14.2331C2.76157 14.3541 2.77542 14.478 2.82193 14.5911C2.86843 14.7042 2.94561 14.8026 3.04554 14.8744C3.14522 14.9463 3.26308 14.9892 3.38592 14.9983C3.50861 15.0071 3.6313 14.9816 3.74014 14.9245L7.91665 12.741L12.0942 14.9235C12.203 14.9806 12.3257 15.0062 12.4484 14.9973C12.5712 14.9882 12.6891 14.9453 12.7888 14.8734C12.8887 14.8016 12.9659 14.7032 13.0124 14.5901C13.0589 14.477 13.0727 14.3531 13.052 14.2321L12.2544 9.6074L15.6344 6.33412C15.7222 6.24857 15.7844 6.14044 15.8139 6.02181C15.8434 5.90318 15.8392 5.77872 15.8017 5.66235C15.7641 5.5453 15.6938 5.44301 15.5998 5.36335C15.5059 5.28417 15.3913 5.23302 15.2693 5.21581H15.2674ZM35.0585 5.21581L30.3873 4.54109L28.3015 0.336377C28.2408 0.233951 28.1542 0.149159 28.0502 0.0904874C27.9466 0.0312415 27.8293 4.00238e-05 27.7098 0C27.5905 0.000497463 27.4733 0.0316372 27.3696 0.0903999C27.266 0.149163 27.1793 0.233555 27.1181 0.335393L25.0274 4.54109L20.3571 5.21581C20.2662 5.22925 20.179 5.26136 20.1012 5.31009C20.0234 5.35882 19.9567 5.42311 19.9052 5.49887C19.8537 5.57463 19.8187 5.6602 19.8023 5.75015C19.7859 5.8401 19.7885 5.93246 19.81 6.02135C19.8391 6.14041 19.9015 6.24884 19.99 6.33412L23.371 9.60838L22.5735 14.2331C22.5527 14.3541 22.5666 14.478 22.6131 14.5911C22.6596 14.7042 22.7368 14.8026 22.8367 14.8744C22.9364 14.9463 23.0543 14.9892 23.1771 14.9983C23.2998 15.0071 23.4225 14.9816 23.5313 14.9245L27.7078 12.741L31.8853 14.9235C31.9942 14.9806 32.1169 15.0062 32.2396 14.9973C32.3624 14.9882 32.4803 14.9453 32.5799 14.8734C32.6799 14.8016 32.757 14.7032 32.8036 14.5901C32.8501 14.477 32.8639 14.3531 32.8431 14.2321L32.0456 9.6074L35.4256 6.33412C35.5134 6.24857 35.5756 6.14044 35.6051 6.02181C35.6346 5.90318 35.6304 5.77872 35.5928 5.66235C35.5552 5.5453 35.485 5.44301 35.391 5.36335C35.297 5.28417 35.1825 5.23302 35.0605 5.21581H35.0585ZM54.8507 5.21581L50.1795 4.54109L48.0937 0.336377C48.033 0.233951 47.9463 0.149159 47.8424 0.0904874C47.7388 0.0312415 47.6214 4.00238e-05 47.502 0C47.3826 0.000497463 47.2655 0.0316372 47.1618 0.0903999C47.0581 0.149163 46.9715 0.233555 46.9103 0.335393L44.8196 4.54109L40.1493 5.21581C40.0583 5.22925 39.9712 5.26136 39.8934 5.31009C39.8156 5.35882 39.7488 5.42311 39.6974 5.49887C39.6459 5.57463 39.6109 5.6602 39.5945 5.75015C39.5781 5.8401 39.5807 5.93246 39.6021 6.02135C39.6313 6.14041 39.6937 6.24884 39.7822 6.33412L43.1632 9.60838L42.3657 14.2331C42.3449 14.3541 42.3588 14.478 42.4053 14.5911C42.4518 14.7042 42.529 14.8026 42.6289 14.8744C42.7286 14.9463 42.8464 14.9892 42.9693 14.9983C43.092 15.0071 43.2146 14.9816 43.3235 14.9245L47.5 12.741L51.6775 14.9235C51.7863 14.9806 51.909 15.0062 52.0317 14.9973C52.1546 14.9882 52.2724 14.9453 52.3721 14.8734C52.472 14.8016 52.5492 14.7032 52.5957 14.5901C52.6422 14.477 52.6561 14.3531 52.6353 14.2321L51.8378 9.6074L55.2178 6.33412C55.3056 6.24857 55.3677 6.14044 55.3972 6.02181C55.4268 5.90318 55.4225 5.77872 55.385 5.66235C55.3474 5.5453 55.2772 5.44301 55.1832 5.36335C55.0892 5.28417 54.9746 5.23302 54.8527 5.21581H54.8507ZM74.6419 5.21581L69.9706 4.54109L67.8849 0.336377C67.8242 0.233951 67.7375 0.149159 67.6335 0.0904874C67.53 0.0312415 67.4126 4.00238e-05 67.2932 0C67.1738 0.000497463 67.0566 0.0316372 66.953 0.0903999C66.8493 0.149163 66.7627 0.233555 66.7015 0.335393L64.6107 4.54109L59.9405 5.21581C59.8495 5.22925 59.7624 5.26136 59.6846 5.31009C59.6068 5.35882 59.54 5.42311 59.4885 5.49887C59.4371 5.57463 59.402 5.6602 59.3856 5.75015C59.3692 5.8401 59.3719 5.93246 59.3933 6.02135C59.4224 6.14041 59.4849 6.24884 59.5734 6.33412L62.9544 9.60838L62.1569 14.2331C62.1361 14.3541 62.1499 14.478 62.1964 14.5911C62.243 14.7042 62.3201 14.8026 62.4201 14.8744C62.5197 14.9463 62.6376 14.9892 62.7604 14.9983C62.8831 15.0071 63.0058 14.9816 63.1147 14.9245L67.2912 12.741L71.4687 14.9235C71.5775 14.9806 71.7002 15.0062 71.8229 14.9973C71.9457 14.9882 72.0636 14.9453 72.1633 14.8734C72.2632 14.8016 72.3404 14.7032 72.3869 14.5901C72.4334 14.477 72.4473 14.3531 72.4265 14.2321L71.629 9.6074L75.009 6.33412C75.0968 6.24857 75.1589 6.14044 75.1884 6.02181C75.218 5.90318 75.2137 5.77872 75.1762 5.66235C75.1386 5.5453 75.0683 5.44301 74.9743 5.36335C74.8804 5.28417 74.7658 5.23302 74.6439 5.21581H74.6419ZM94.434 5.21581L89.7628 4.54109L87.677 0.336377C87.6164 0.233951 87.5297 0.149159 87.4257 0.0904874C87.3222 0.0312415 87.2048 4.00238e-05 87.0853 0C86.966 0.000497463 86.8488 0.0316372 86.7451 0.0903999C86.6415 0.149163 86.5548 0.233555 86.4936 0.335393L84.4029 4.54109L79.7326 5.21581C79.6417 5.22925 79.5545 5.26136 79.4767 5.31009C79.3989 5.35882 79.3322 5.42311 79.2807 5.49887C79.2292 5.57463 79.1942 5.6602 79.1778 5.75015C79.1614 5.8401 79.164 5.93246 79.1855 6.02135C79.2146 6.14041 79.277 6.24884 79.3656 6.33412L82.7465 9.60838L81.949 14.2331C81.9283 14.3541 81.9421 14.478 81.9886 14.5911C82.0351 14.7042 82.1123 14.8026 82.2122 14.8744C82.3119 14.9463 82.4298 14.9892 82.5526 14.9983C82.6753 15.0071 82.798 14.9816 82.9068 14.9245L87.0833 12.741L91.2608 14.9235C91.3697 14.9806 91.4924 15.0062 91.6151 14.9973C91.7379 14.9882 91.8558 14.9453 91.9554 14.8734C92.0554 14.8016 92.1326 14.7032 92.1791 14.5901C92.2256 14.477 92.2394 14.3531 92.2186 14.2321L91.4211 9.6074L94.8011 6.33412C94.8889 6.24857 94.9511 6.14044 94.9806 6.02181C95.0101 5.90318 95.0059 5.77872 94.9683 5.66235C94.9307 5.5453 94.8605 5.44301 94.7665 5.36335C94.6725 5.28417 94.558 5.23302 94.436 5.21581H94.434Z" fill="#FFDA6E"/>
</svg>
