<svg width="17" height="16" viewBox="0 0 17 16" fill="none" xmlns="http://www.w3.org/2000/svg">
<g clip-path="url(#clip0_2383_1425)">
<path d="M16.4922 8.1497C16.4922 7.49419 16.4377 7.01584 16.3199 6.51978H8.65918V9.47843H13.1559C13.0652 10.2137 12.5757 11.321 11.4877 12.0651L11.4725 12.1641L13.8947 13.9976L14.0625 14.0139C15.6037 12.6232 16.4922 10.5769 16.4922 8.1497Z" fill="#4285F4"/>
<path d="M8.65918 15.945C10.8622 15.945 12.7116 15.2363 14.0625 14.0139L11.4877 12.065C10.7987 12.5345 9.87399 12.8623 8.65918 12.8623C6.50149 12.8623 4.67018 11.4716 4.01737 9.54932L3.92168 9.55726L1.40305 11.4618L1.37012 11.5513C2.71187 14.1556 5.46793 15.945 8.65918 15.945Z" fill="#34A853"/>
<path d="M4.01756 9.5493C3.84531 9.05324 3.74563 8.5217 3.74563 7.97251C3.74563 7.42326 3.84531 6.89177 4.0085 6.39571L4.00394 6.29006L1.45375 4.35492L1.37031 4.3937C0.817313 5.47443 0.5 6.68805 0.5 7.97251C0.5 9.25697 0.817313 10.4705 1.37031 11.5513L4.01756 9.5493Z" fill="#FBBC05"/>
<path d="M8.65918 3.08269C10.1913 3.08269 11.2248 3.72934 11.8141 4.26974L14.1169 2.07285C12.7026 0.788397 10.8622 0 8.65918 0C5.46793 0 2.71187 1.78937 1.37012 4.39371L4.0083 6.39573C4.67018 4.47347 6.50149 3.08269 8.65918 3.08269Z" fill="#EB4335"/>
</g>
<defs>
<clipPath id="clip0_2383_1425">
<rect width="16" height="16" fill="white" transform="translate(0.5)"/>
</clipPath>
</defs>
</svg>
